<?xml version="1.0" encoding="utf-8"?>
<!-- Generator: Adobe Illustrator 23.0.4, SVG Export Plug-In . SVG Version: 6.00 Build 0)  -->
<svg version="1.1" id="レイヤー_1" xmlns="http://www.w3.org/2000/svg" xmlns:xlink="http://www.w3.org/1999/xlink" x="0px"
	 y="0px" viewBox="0 0 32 32" style="enable-background:new 0 0 32 32;" xml:space="preserve">
<style type="text/css">
	.st0{fill-rule:evenodd;clip-rule:evenodd;}
	.st1{clip-path:url(#SVGID_4_);}
	.st2{fill:#040000;}
	.st3{fill:#1D1D1B;}
</style>
<path d="M0.16,23.98c0.1-0.15,0.25-0.16,0.46-0.03c4.82,2.79,10.06,4.19,15.72,4.19c3.78,0,7.51-0.7,11.19-2.11
	c0.1-0.04,0.24-0.1,0.42-0.17c0.18-0.08,0.31-0.13,0.39-0.17c0.29-0.12,0.52-0.06,0.68,0.17c0.16,0.23,0.11,0.44-0.16,0.64
	c-0.35,0.25-0.79,0.54-1.33,0.87c-1.66,0.98-3.51,1.74-5.55,2.28c-2.04,0.54-4.04,0.81-5.98,0.81c-3.01,0-5.85-0.53-8.53-1.58
	c-2.68-1.05-5.08-2.53-7.2-4.44c-0.12-0.1-0.17-0.19-0.17-0.29C0.1,24.09,0.12,24.04,0.16,23.98z M8.86,15.74
	c0-1.33,0.33-2.47,0.98-3.41c0.66-0.94,1.55-1.66,2.69-2.14c1.04-0.44,2.32-0.76,3.84-0.95C16.9,9.18,17.74,9.1,18.92,9V8.51
	c0-1.23-0.13-2.06-0.4-2.49c-0.4-0.58-1.04-0.87-1.91-0.87h-0.23c-0.64,0.06-1.19,0.26-1.65,0.61s-0.76,0.83-0.9,1.45
	c-0.08,0.39-0.27,0.61-0.58,0.66l-3.32-0.4C9.6,7.4,9.44,7.22,9.44,6.95c0-0.06,0.01-0.13,0.03-0.2c0.33-1.72,1.13-2.99,2.41-3.82
	c1.28-0.83,2.78-1.29,4.49-1.39h0.72c2.2,0,3.91,0.57,5.15,1.71c0.19,0.19,0.37,0.4,0.53,0.62c0.16,0.22,0.29,0.42,0.39,0.59
	c0.1,0.17,0.18,0.42,0.26,0.75c0.08,0.33,0.13,0.55,0.17,0.68c0.04,0.13,0.07,0.4,0.09,0.81c0.02,0.41,0.03,0.66,0.03,0.74v7
	c0,0.5,0.07,0.96,0.22,1.37s0.28,0.71,0.42,0.9c0.13,0.18,0.36,0.48,0.66,0.88c0.12,0.17,0.17,0.33,0.17,0.46
	c0,0.15-0.08,0.29-0.23,0.4c-1.6,1.39-2.47,2.14-2.6,2.25c-0.23,0.17-0.51,0.19-0.84,0.06c-0.27-0.23-0.51-0.45-0.71-0.66
	c-0.2-0.21-0.35-0.37-0.43-0.46c-0.09-0.1-0.23-0.28-0.42-0.56c-0.19-0.28-0.33-0.47-0.4-0.56c-1.08,1.18-2.14,1.91-3.18,2.2
	C15.72,20.9,14.91,21,13.95,21c-1.48,0-2.7-0.46-3.66-1.37S8.86,17.42,8.86,15.74z M13.83,15.16c0,0.75,0.19,1.35,0.56,1.81
	s0.88,0.68,1.52,0.68c0.06,0,0.14-0.01,0.25-0.03c0.11-0.02,0.18-0.03,0.22-0.03c0.81-0.21,1.44-0.73,1.88-1.56
	c0.21-0.37,0.37-0.77,0.48-1.2c0.11-0.43,0.16-0.79,0.17-1.06c0.01-0.27,0.01-0.71,0.01-1.33v-0.72c-1.12,0-1.97,0.08-2.54,0.23
	C14.68,12.44,13.83,13.5,13.83,15.16z M25.97,24.47c0.04-0.08,0.1-0.15,0.17-0.23c0.48-0.33,0.94-0.55,1.39-0.66
	c0.73-0.19,1.45-0.3,2.14-0.32c0.19-0.02,0.38-0.01,0.55,0.03c0.87,0.08,1.39,0.22,1.56,0.43c0.08,0.12,0.12,0.29,0.12,0.52v0.2
	c0,0.67-0.18,1.47-0.55,2.38c-0.37,0.92-0.88,1.65-1.53,2.21c-0.1,0.08-0.18,0.12-0.26,0.12c-0.04,0-0.08-0.01-0.12-0.03
	c-0.12-0.06-0.14-0.16-0.09-0.32c0.71-1.68,1.07-2.84,1.07-3.5c0-0.21-0.04-0.37-0.12-0.46c-0.19-0.23-0.73-0.35-1.62-0.35
	c-0.33,0-0.71,0.02-1.16,0.06c-0.48,0.06-0.92,0.12-1.33,0.17c-0.12,0-0.19-0.02-0.23-0.06c-0.04-0.04-0.05-0.08-0.03-0.12
	C25.94,24.54,25.95,24.51,25.97,24.47z"/>
</svg>
