<?xml version="1.0" encoding="utf-8"?>
<!-- Generator: Adobe Illustrator 23.0.4, SVG Export Plug-In . SVG Version: 6.00 Build 0)  -->
<svg version="1.1" id="レイヤー_1" xmlns="http://www.w3.org/2000/svg" xmlns:xlink="http://www.w3.org/1999/xlink" x="0px"
	 y="0px" viewBox="0 0 32 32" style="enable-background:new 0 0 32 32;" xml:space="preserve">
<style type="text/css">
	.st0{fill-rule:evenodd;clip-rule:evenodd;}
	.st1{clip-path:url(#SVGID_4_);}
	.st2{fill:#040000;}
	.st3{fill:#1D1D1B;}
</style>
<g>
	<path d="M29.38,12.57c0-1.08-0.88-1.96-1.96-1.96c-1.08,0-1.96,0.88-1.96,1.96v8.16c0,1.08,0.88,1.96,1.96,1.96
		c1.08,0,1.96-0.88,1.96-1.96V12.57z"/>
	<path d="M6.53,12.57c0-1.08-0.88-1.96-1.96-1.96s-1.96,0.88-1.96,1.96v8.16c0,1.08,0.88,1.96,1.96,1.96s1.96-0.88,1.96-1.96V12.57z
		"/>
	<g>
		<path d="M20.28,3.24l1.38-2.49c0.07-0.13,0.03-0.3-0.11-0.38c-0.04-0.02-0.09-0.03-0.13-0.03c-0.1,0-0.19,0.05-0.24,0.14
			l-1.4,2.52C18.64,2.49,17.35,2.2,16,2.2c-1.35,0-2.64,0.28-3.78,0.79l-1.4-2.52c-0.07-0.13-0.24-0.18-0.38-0.11
			c-0.13,0.07-0.18,0.24-0.11,0.38l1.38,2.49c-2.65,1.38-4.45,4.01-4.45,7.02h17.47C24.73,7.24,22.94,4.62,20.28,3.24z M11.97,7.06
			c-0.4,0-0.73-0.33-0.73-0.73c0-0.4,0.33-0.73,0.73-0.73c0.4,0,0.73,0.33,0.73,0.73C12.7,6.73,12.37,7.06,11.97,7.06z M20.03,7.06
			c-0.4,0-0.73-0.33-0.73-0.73c0-0.4,0.33-0.73,0.73-0.73c0.4,0,0.73,0.33,0.73,0.73C20.76,6.73,20.43,7.06,20.03,7.06z"/>
		<path d="M7.26,10.95v12.66c0,1.17,0.95,2.11,2.11,2.11h1.4v4.32c0,1.08,0.88,1.96,1.96,1.96s1.96-0.88,1.96-1.96v-4.32h2.61v4.32
			c0,1.08,0.88,1.96,1.96,1.96s1.96-0.88,1.96-1.96v-4.32h1.4c1.17,0,2.11-0.95,2.11-2.11V10.95H7.26z"/>
	</g>
</g>
</svg>
