<?xml version="1.0" encoding="utf-8"?>
<!-- Generator: Adobe Illustrator 23.0.4, SVG Export Plug-In . SVG Version: 6.00 Build 0)  -->
<svg version="1.1" id="レイヤー_1" xmlns="http://www.w3.org/2000/svg" xmlns:xlink="http://www.w3.org/1999/xlink" x="0px"
	 y="0px" viewBox="0 0 32 32" style="enable-background:new 0 0 32 32;" xml:space="preserve">
<style type="text/css">
	.st0{fill-rule:evenodd;clip-rule:evenodd;}
	.st1{clip-path:url(#SVGID_4_);}
	.st2{clip-path:url(#SVGID_6_);}
	.st3{clip-path:url(#SVGID_8_);}
</style>
<g>
	<path d="M28.97,23.5c-0.09,0.24-0.17,0.5-0.27,0.76c-0.79,2.15-2,4.06-3.47,5.81c-0.28,0.34-0.61,0.65-0.95,0.94
		c-0.67,0.57-1.45,0.91-2.34,0.94c-0.67,0.02-1.32-0.1-1.94-0.35c-0.45-0.18-0.89-0.39-1.35-0.56c-1.48-0.54-2.96-0.47-4.41,0.11
		c-0.53,0.21-1.04,0.44-1.58,0.62c-0.62,0.21-1.26,0.29-1.92,0.17c-0.57-0.11-1.07-0.37-1.54-0.72c-0.58-0.43-1.06-0.95-1.51-1.5
		c-2.14-2.62-3.58-5.57-4.28-8.89c-0.3-1.42-0.44-2.86-0.36-4.32c0.1-1.75,0.51-3.41,1.44-4.91C5.67,9.74,7.32,8.5,9.49,8
		c1.31-0.31,2.58-0.18,3.82,0.3c0.66,0.25,1.31,0.5,1.97,0.75c0.61,0.23,1.21,0.23,1.82,0c0.67-0.26,1.34-0.51,2.02-0.76
		c0.69-0.25,1.39-0.46,2.13-0.52c1.1-0.09,2.17,0.05,3.21,0.4c1.48,0.49,2.68,1.37,3.59,2.64c0.02,0.03,0.05,0.07,0.07,0.1
		c-2.29,1.6-3.59,3.7-3.4,6.56C24.91,20.32,26.45,22.25,28.97,23.5z M16.13,7.4c0.68,0.02,1.32-0.11,1.95-0.36
		c2.85-1.13,4.34-4.15,4.3-6.46c0-0.19-0.02-0.37-0.02-0.59c-0.29,0.04-0.56,0.06-0.82,0.13c-2.08,0.51-3.68,1.67-4.74,3.55
		c-0.62,1.1-0.96,2.27-0.85,3.55C15.95,7.37,16,7.4,16.13,7.4z"/>
</g>
</svg>
