<?xml version="1.0" encoding="utf-8"?>
<!-- Generator: Adobe Illustrator 23.0.4, SVG Export Plug-In . SVG Version: 6.00 Build 0)  -->
<svg version="1.1" id="レイヤー_1" xmlns="http://www.w3.org/2000/svg" xmlns:xlink="http://www.w3.org/1999/xlink" x="0px"
	 y="0px" viewBox="0 0 32 32" style="enable-background:new 0 0 32 32;" xml:space="preserve">
<style type="text/css">
	.st0{fill-rule:evenodd;clip-rule:evenodd;}
	.st1{clip-path:url(#SVGID_4_);}
	.st2{clip-path:url(#SVGID_6_);}
	.st3{clip-path:url(#SVGID_8_);}
</style>
<g>
	<path id="Behance" d="M28.81,8.91h-7.96V6.93h7.96L28.81,8.91C28.81,8.91,28.81,8.91,28.81,8.91z M15.55,17.02
		c0.51,0.8,0.77,1.76,0.77,2.9c0,1.17-0.29,2.23-0.88,3.15c-0.37,0.62-0.84,1.13-1.4,1.55c-0.63,0.48-1.37,0.82-2.23,0.99
		c-0.86,0.18-1.79,0.27-2.79,0.27h-8.9V6.11h9.55c2.41,0.04,4.11,0.74,5.12,2.11c0.6,0.84,0.9,1.85,0.9,3.02
		c0,1.21-0.3,2.18-0.91,2.91c-0.34,0.41-0.84,0.79-1.51,1.13C14.27,15.64,15.04,16.22,15.55,17.02z M4.67,13.91h4.18
		c0.86,0,1.55-0.16,2.09-0.49c0.53-0.33,0.8-0.91,0.8-1.74c0-0.92-0.35-1.53-1.06-1.82c-0.61-0.2-1.39-0.31-2.33-0.31H4.67V13.91z
		 M12.15,19.64c0-1.03-0.42-1.74-1.26-2.12c-0.47-0.22-1.13-0.33-1.98-0.34H4.67v5.27h4.18c0.86,0,1.52-0.11,2-0.35
		C11.72,21.67,12.15,20.85,12.15,19.64z M31.76,16.42c0.1,0.65,0.14,1.59,0.12,2.81H21.57c0.06,1.42,0.55,2.42,1.48,2.99
		c0.56,0.36,1.24,0.53,2.04,0.53c0.84,0,1.53-0.21,2.05-0.65c0.29-0.23,0.54-0.56,0.76-0.97h3.78c-0.1,0.84-0.55,1.69-1.37,2.56
		c-1.27,1.38-3.04,2.07-5.33,2.07c-1.89,0-3.55-0.58-4.99-1.74c-1.44-1.16-2.16-3.05-2.16-5.67c0-2.46,0.65-4.34,1.95-5.65
		c1.31-1.31,2.99-1.96,5.07-1.96c1.23,0,2.34,0.22,3.33,0.66c0.99,0.44,1.8,1.14,2.44,2.1C31.21,14.33,31.59,15.31,31.76,16.42z
		 M28.04,16.79c-0.07-0.98-0.4-1.73-0.99-2.24c-0.59-0.51-1.32-0.77-2.19-0.77c-0.95,0-1.69,0.27-2.21,0.81
		c-0.53,0.54-0.85,1.27-0.99,2.19L28.04,16.79L28.04,16.79z"/>
</g>
</svg>
