<?xml version="1.0" encoding="utf-8"?>
<!-- Generator: Adobe Illustrator 23.0.4, SVG Export Plug-In . SVG Version: 6.00 Build 0)  -->
<svg version="1.1" id="レイヤー_1" xmlns="http://www.w3.org/2000/svg" xmlns:xlink="http://www.w3.org/1999/xlink" x="0px"
	 y="0px" viewBox="0 0 32 32" style="enable-background:new 0 0 32 32;" xml:space="preserve">
<style type="text/css">
	.st0{fill-rule:evenodd;clip-rule:evenodd;}
	.st1{clip-path:url(#SVGID_4_);}
	.st2{fill:#040000;}
	.st3{fill:#1D1D1B;}
</style>
<g>
	<path d="M16,0.05C7.19,0.05,0.05,7.19,0.05,16S7.19,31.95,16,31.95c8.81,0,15.95-7.14,15.95-15.95S24.81,0.05,16,0.05z M16,29.33
		C8.65,29.33,2.67,23.35,2.67,16S8.65,2.67,16,2.67c7.35,0,13.33,5.98,13.33,13.33S23.35,29.33,16,29.33z"/>
	<path d="M25.85,12.89c0-0.01,0-0.02-0.01-0.04c0-0.02-0.01-0.05-0.01-0.07c0-0.01-0.01-0.03-0.01-0.04
		c-0.01-0.02-0.01-0.04-0.02-0.06c-0.01-0.01-0.01-0.03-0.02-0.04c-0.01-0.02-0.02-0.04-0.03-0.06c-0.01-0.01-0.02-0.03-0.02-0.04
		c-0.01-0.02-0.02-0.03-0.04-0.05c-0.01-0.01-0.02-0.02-0.03-0.04c-0.01-0.02-0.03-0.03-0.04-0.05c-0.01-0.01-0.02-0.02-0.03-0.03
		c-0.02-0.01-0.03-0.03-0.05-0.04c-0.01-0.01-0.03-0.02-0.04-0.03c0,0-0.01-0.01-0.01-0.01l-9.01-6.01c-0.28-0.19-0.66-0.19-0.94,0
		l-9.01,6.01c0,0-0.01,0.01-0.01,0.01c-0.01,0.01-0.03,0.02-0.04,0.03c-0.02,0.01-0.03,0.03-0.05,0.04
		c-0.01,0.01-0.02,0.02-0.03,0.03c-0.01,0.01-0.03,0.03-0.04,0.05c-0.01,0.01-0.02,0.02-0.03,0.04c-0.01,0.02-0.02,0.03-0.04,0.05
		c-0.01,0.01-0.02,0.03-0.02,0.04c-0.01,0.02-0.02,0.04-0.03,0.06c-0.01,0.01-0.01,0.03-0.02,0.04c-0.01,0.02-0.02,0.04-0.02,0.06
		c0,0.01-0.01,0.03-0.01,0.04c-0.01,0.02-0.01,0.05-0.01,0.07c0,0.01-0.01,0.02-0.01,0.04c0,0.04-0.01,0.07-0.01,0.11V19
		c0,0.04,0,0.07,0.01,0.11c0,0.01,0,0.02,0.01,0.04c0,0.02,0.01,0.05,0.01,0.07c0,0.01,0.01,0.03,0.01,0.04
		c0.01,0.02,0.01,0.04,0.02,0.06c0.01,0.01,0.01,0.03,0.02,0.04c0.01,0.02,0.02,0.04,0.03,0.06c0.01,0.01,0.02,0.03,0.02,0.04
		c0.01,0.02,0.02,0.03,0.04,0.05c0.01,0.01,0.02,0.02,0.03,0.04c0.01,0.02,0.03,0.03,0.04,0.05c0.01,0.01,0.02,0.02,0.03,0.03
		c0.02,0.01,0.03,0.03,0.05,0.04c0.01,0.01,0.02,0.02,0.04,0.03c0,0,0.01,0.01,0.01,0.01l9.01,6.01c0.14,0.09,0.31,0.14,0.47,0.14
		c0.16,0,0.33-0.05,0.47-0.14l9.01-6.01c0,0,0.01-0.01,0.01-0.01c0.01-0.01,0.03-0.02,0.04-0.03c0.02-0.01,0.03-0.03,0.05-0.04
		c0.01-0.01,0.02-0.02,0.03-0.03c0.01-0.01,0.03-0.03,0.04-0.05c0.01-0.01,0.02-0.02,0.03-0.04c0.01-0.02,0.02-0.03,0.04-0.05
		c0.01-0.01,0.02-0.03,0.02-0.04c0.01-0.02,0.02-0.04,0.03-0.06c0.01-0.01,0.01-0.03,0.02-0.04c0.01-0.02,0.02-0.04,0.02-0.06
		c0-0.01,0.01-0.03,0.01-0.04c0.01-0.02,0.01-0.05,0.01-0.07c0-0.01,0.01-0.02,0.01-0.04c0-0.04,0.01-0.07,0.01-0.11V13
		C25.86,12.96,25.86,12.92,25.85,12.89z M16.85,8.57L23.49,13l-2.97,1.98l-3.67-2.46V8.57z M15.15,8.57v3.95l-3.67,2.46L8.51,13
		L15.15,8.57z M7.83,14.58L9.95,16l-2.12,1.42V14.58z M15.15,23.43L8.51,19l2.97-1.98l3.67,2.46V23.43z M16,18.01l-3-2l3-2l3,2
		L16,18.01z M16.85,23.43v-3.95l3.67-2.46L23.49,19L16.85,23.43z M24.17,17.42L22.05,16l2.12-1.42V17.42z"/>
</g>
</svg>
