<?xml version="1.0" encoding="utf-8"?>
<!-- Generator: Adobe Illustrator 23.0.4, SVG Export Plug-In . SVG Version: 6.00 Build 0)  -->
<svg version="1.1" id="レイヤー_1" xmlns="http://www.w3.org/2000/svg" xmlns:xlink="http://www.w3.org/1999/xlink" x="0px"
	 y="0px" viewBox="0 0 32 32" style="enable-background:new 0 0 32 32;" xml:space="preserve">
<style type="text/css">
	.st0{fill-rule:evenodd;clip-rule:evenodd;}
	.st1{clip-path:url(#SVGID_4_);}
	.st2{clip-path:url(#SVGID_6_);}
	.st3{clip-path:url(#SVGID_8_);}
</style>
<g>
	<path d="M13.12,13.49c-0.91,0-1.63,0.8-1.63,1.77s0.73,1.77,1.63,1.77c0.91,0,1.63-0.8,1.63-1.77
		C14.76,14.29,14.02,13.49,13.12,13.49z M18.93,13.49c-0.91,0-1.63,0.8-1.63,1.77s0.73,1.77,1.63,1.77c0.91,0,1.63-0.8,1.63-1.77
		S19.84,13.49,18.93,13.49z"/>
	<path d="M26.68,0.12H5.32c-1.8,0-3.27,1.47-3.27,3.28v21.55c0,1.82,1.47,3.28,3.27,3.28H23.4l-0.84-2.95l2.04,1.9l1.93,1.79
		L29.95,32V3.41C29.95,1.59,28.48,0.12,26.68,0.12z M20.53,20.94c0,0-0.57-0.69-1.05-1.29c2.09-0.59,2.88-1.9,2.88-1.9
		c-0.65,0.43-1.28,0.73-1.83,0.94c-0.8,0.33-1.56,0.56-2.31,0.69c-1.53,0.29-2.93,0.21-4.13-0.02c-0.91-0.18-1.69-0.43-2.34-0.69
		c-0.37-0.14-0.77-0.32-1.16-0.54c-0.05-0.03-0.1-0.05-0.14-0.08c-0.03-0.02-0.05-0.03-0.06-0.05c-0.29-0.16-0.45-0.27-0.45-0.27
		s0.77,1.28,2.79,1.88c-0.48,0.61-1.07,1.32-1.07,1.32c-3.52-0.11-4.86-2.42-4.86-2.42c0-5.13,2.3-9.29,2.3-9.29
		c2.3-1.72,4.48-1.67,4.48-1.67l0.16,0.19c-2.87,0.83-4.19,2.09-4.19,2.09s0.35-0.19,0.94-0.46c1.71-0.75,3.06-0.96,3.62-1
		c0.1-0.02,0.18-0.03,0.27-0.03c0.97-0.13,2.07-0.16,3.22-0.03c1.51,0.18,3.14,0.62,4.8,1.53c0,0-1.26-1.2-3.97-2.02l0.22-0.26
		c0,0,2.18-0.05,4.48,1.67c0,0,2.3,4.16,2.3,9.29C25.4,18.52,24.05,20.83,20.53,20.94z"/>
</g>
</svg>
