<?xml version="1.0" encoding="utf-8"?>
<!-- Generator: Adobe Illustrator 23.0.4, SVG Export Plug-In . SVG Version: 6.00 Build 0)  -->
<svg version="1.1" id="レイヤー_1" xmlns="http://www.w3.org/2000/svg" xmlns:xlink="http://www.w3.org/1999/xlink" x="0px"
	 y="0px" viewBox="0 0 32 32" style="enable-background:new 0 0 32 32;" xml:space="preserve">
<style type="text/css">
	.st0{fill-rule:evenodd;clip-rule:evenodd;}
	.st1{clip-path:url(#SVGID_4_);}
	.st2{clip-path:url(#SVGID_6_);}
	.st3{clip-path:url(#SVGID_8_);}
</style>
<path d="M10.91,7.17c0,0.31-0.03,0.85-0.35,1.19c-0.35,0.32-0.88,0.35-1.19,0.35l-3.39,0c-0.98,0-1.56,0-1.96,0.05
	C3.8,8.79,3.54,8.9,3.4,8.95c-0.04,0.02-0.05,0-0.03-0.03l7.75-7.88c0.03-0.03,0.04-0.02,0.03,0.03c-0.05,0.13-0.16,0.4-0.19,0.61
	c-0.05,0.4-0.05,0.98-0.05,1.96L10.91,7.17z M18.11,31c-0.91-0.58-1.37-1.36-1.56-1.83c-0.18-0.46-0.28-0.95-0.28-1.47
	c0-2.2,1.8-4,4.03-4c0.66,0,1.19,0.53,1.19,1.19c0,0.44-0.25,0.83-0.62,1.04c-0.12,0.07-0.32,0.14-0.45,0.16s-0.64,0.08-0.87,0.29
	c-0.28,0.21-0.47,0.55-0.47,0.93c0,0.4,0.16,0.77,0.42,1.03c0.48,0.48,1.11,0.74,1.8,0.74c1.8,0,3.26-1.46,3.26-3.26
	c0-1.62-1.09-3.05-2.52-3.69c-0.21-0.11-0.56-0.19-0.88-0.27c-0.4-0.08-0.77-0.13-0.8-0.13c-1.11-0.13-3.9-1.01-4.08-3.47
	c0,0-0.82,3.71-2.47,4.72c-0.16,0.08-0.37,0.16-0.61,0.21c-0.24,0.05-0.5,0.08-0.58,0.08c-2.68,0.16-5.52-0.69-7.48-2.7
	c0,0-1.33-1.09-2.02-4.14c-0.16-0.74-0.48-2.07-0.66-3.31C2.4,12.67,2.37,12.32,2.35,12c0-1.29,0.8-2.17,1.79-2.3
	c0.03,0,0.12-0.01,0.16-0.01c0.6,0,5.24,0,5.24,0c0.93,0,1.46-0.24,1.8-0.56c0.45-0.42,0.56-1.03,0.56-1.75c0,0,0-4.82,0-5.43
	c0-0.04,0.01-0.12,0.01-0.16c0.12-0.99,1.01-1.79,2.3-1.79c0,0,0.4,0,0.64,0c0.27,0,0.59,0.02,0.88,0.07
	c0.22,0.03,0.4,0.07,0.71,0.15c1.62,0.4,1.96,2.04,1.96,2.04s3.05,0.53,4.59,0.8c1.46,0.27,5.06,0.5,5.75,4.14
	c1.62,8.64,0.64,17.02,0.56,17.02C28.15,32.39,21.36,32,21.36,32C19.93,31.98,18.84,31.49,18.11,31z M24.22,13.61
	c-0.88-0.09-1.62,0.26-1.89,0.93c-0.06,0.14-0.1,0.29-0.07,0.37c0.03,0.08,0.08,0.1,0.13,0.13c0.32,0.15,0.86,0.23,1.62,0.32
	c0.77,0.09,1.3,0.14,1.65,0.07c0.06-0.01,0.12-0.02,0.16-0.09c0.05-0.07,0.04-0.23,0.02-0.38C25.74,14.25,25.1,13.73,24.22,13.61z"
	/>
</svg>
