<?xml version="1.0" encoding="utf-8"?>
<!-- Generator: Adobe Illustrator 23.0.4, SVG Export Plug-In . SVG Version: 6.00 Build 0)  -->
<svg version="1.1" id="レイヤー_1" xmlns="http://www.w3.org/2000/svg" xmlns:xlink="http://www.w3.org/1999/xlink" x="0px"
	 y="0px" viewBox="0 0 32 32" style="enable-background:new 0 0 32 32;" xml:space="preserve">
<style type="text/css">
	.st0{fill-rule:evenodd;clip-rule:evenodd;}
	.st1{clip-path:url(#SVGID_4_);}
	.st2{fill:#040000;}
	.st3{fill:#1D1D1B;}
</style>
<path d="M30.98,15.47L18.41,2.89c-1.35-1.35-3.57-1.35-4.92,0L1.02,15.36c-1.35,1.35-1.35,3.57,0,4.92l7.38,7.38
	c1.35,1.35,2.36,2.46,4.28,2.46h6.77c1.91,0,2.92-1.11,4.28-2.46l7.26-7.26C32.34,19.04,32.34,16.83,30.98,15.47z M12.52,23.34H11.9
	c-0.2,0-0.49-0.12-0.63-0.26l-1.22-1.22c-0.14-0.14-0.14-0.38,0-0.52l5.63-5.63c0.14-0.14,0.38-0.14,0.52,0l1.9,1.9
	c0.14,0.14,0.14,0.38,0,0.52l-4.95,4.95C13.01,23.22,12.73,23.34,12.52,23.34z M18.12,25.57l-1.24,1.24
	c-0.14,0.14-0.43,0.26-0.63,0.26h-0.62c-0.2,0-0.49-0.12-0.63-0.26l-1.22-1.22c-0.14-0.14-0.14-0.38,0-0.52l1.92-1.92
	c0.14-0.14,0.38-0.14,0.52,0l1.9,1.9C18.26,25.19,18.26,25.42,18.12,25.57z M18.14,10.68l-8.69,8.69c-0.14,0.14-0.43,0.26-0.63,0.26
	H8.2c-0.2,0-0.49-0.12-0.63-0.26l-1.22-1.22c-0.14-0.14-0.14-0.38,0-0.52l9.37-9.37c0.14-0.14,0.38-0.14,0.52,0l1.9,1.9
	C18.29,10.31,18.29,10.54,18.14,10.68z"/>
</svg>
