<?xml version="1.0" encoding="utf-8"?>
<!-- Generator: Adobe Illustrator 23.0.4, SVG Export Plug-In . SVG Version: 6.00 Build 0)  -->
<svg version="1.1" id="レイヤー_1" xmlns="http://www.w3.org/2000/svg" xmlns:xlink="http://www.w3.org/1999/xlink" x="0px"
	 y="0px" viewBox="0 0 32 32" style="enable-background:new 0 0 32 32;" xml:space="preserve">
<style type="text/css">
	.st0{fill-rule:evenodd;clip-rule:evenodd;}
	.st1{clip-path:url(#SVGID_4_);}
	.st2{fill:#040000;}
	.st3{fill:#1D1D1B;}
</style>
<path class="st0" d="M24.6,0.23c0,0-14.62,0-16.96,0c-2.34,0-3.03,1.73-3.03,2.82v26.54c0,1.23,0.67,1.69,1.05,1.84
	C6.04,31.58,7.08,31.7,7.7,31c0,0,8.12-9.18,8.25-9.32c0.13-0.14,0.27-0.14,0.35-0.14s3.47,0,5.14,0c2.18,0,2.53-1.55,2.75-2.45
	l3.02-14.86C27.75,1.62,27.09,0.23,24.6,0.23z M23.59,4.75L22.88,8.4C22.8,8.8,22.4,9.17,21.94,9.17c-0.47,0-6.61-0.01-6.61-0.01
	c-0.74,0-1.39,0.55-1.39,1.28v0.8c0,0.73,0.61,1.33,1.35,1.33h5.6c0.52,0,0.97,0.49,0.85,1.04c-0.11,0.55-0.7,3.47-0.76,3.77
	c-0.06,0.3-0.39,0.71-0.92,0.71H15.5c-0.95,0.03-1.16,0.04-1.71,0.72c-0.56,0.68-5.57,6.61-5.57,6.61c-0.05,0.06-0.1,0.04-0.1-0.02
	V4.69c0-0.47,0.41-1.01,1.03-1.01h13.61C23.25,3.68,23.72,4.14,23.59,4.75z"/>
</svg>
