<?xml version="1.0" encoding="utf-8"?>
<!-- Generator: Adobe Illustrator 23.0.4, SVG Export Plug-In . SVG Version: 6.00 Build 0)  -->
<svg version="1.1" id="レイヤー_1" xmlns="http://www.w3.org/2000/svg" xmlns:xlink="http://www.w3.org/1999/xlink" x="0px"
	 y="0px" viewBox="0 0 32 32" style="enable-background:new 0 0 32 32;" xml:space="preserve">
<style type="text/css">
	.st0{fill-rule:evenodd;clip-rule:evenodd;}
	.st1{clip-path:url(#SVGID_4_);}
	.st2{clip-path:url(#SVGID_6_);}
	.st3{clip-path:url(#SVGID_8_);}
</style>
<g>
	<path d="M31.4,14.68L17.55,0.82c-0.8-0.8-2.09-0.8-2.89,0L11.78,3.7l3.65,3.65c0.85-0.29,1.82-0.09,2.5,0.58
		c0.68,0.68,0.87,1.66,0.58,2.51l3.52,3.52c0.85-0.29,1.83-0.1,2.51,0.58c0.95,0.95,0.95,2.49,0,3.44c-0.95,0.95-2.49,0.95-3.44,0
		c-0.71-0.72-0.89-1.76-0.53-2.64l-3.28-3.28v8.63c0.23,0.11,0.45,0.27,0.64,0.46c0.95,0.95,0.95,2.49,0,3.44
		c-0.95,0.95-2.49,0.95-3.44,0c-0.95-0.95-0.95-2.49,0-3.44c0.23-0.23,0.51-0.41,0.8-0.53V11.9c-0.29-0.12-0.56-0.29-0.8-0.53
		c-0.72-0.72-0.89-1.78-0.52-2.66l-3.6-3.6l-9.5,9.5c-0.8,0.8-0.8,2.09,0,2.89l13.86,13.86c0.8,0.8,2.09,0.8,2.89,0L31.4,17.57
		C32.2,16.77,32.2,15.48,31.4,14.68z"/>
</g>
</svg>
