<?xml version="1.0" encoding="utf-8"?>
<!-- Generator: Adobe Illustrator 23.0.4, SVG Export Plug-In . SVG Version: 6.00 Build 0)  -->
<svg version="1.1" id="レイヤー_1" xmlns="http://www.w3.org/2000/svg" xmlns:xlink="http://www.w3.org/1999/xlink" x="0px"
	 y="0px" viewBox="0 0 32 32" style="enable-background:new 0 0 32 32;" xml:space="preserve">
<style type="text/css">
	.st0{fill-rule:evenodd;clip-rule:evenodd;}
	.st1{clip-path:url(#SVGID_4_);}
	.st2{clip-path:url(#SVGID_6_);}
	.st3{clip-path:url(#SVGID_8_);}
</style>
<g>
	<path class="st0" d="M15.97,0.2C7.15,0.2,0,7.35,0,16.17c0,7.05,4.57,13.04,10.92,15.15c0.8,0.15,1.09-0.35,1.09-0.77
		c0-0.38-0.01-1.64-0.02-2.97c-4.44,0.97-5.38-1.88-5.38-1.88c-0.73-1.85-1.77-2.34-1.77-2.34c-1.45-0.99,0.11-0.97,0.11-0.97
		c1.6,0.11,2.45,1.65,2.45,1.65c1.42,2.44,3.74,1.74,4.65,1.33c0.14-1.03,0.56-1.74,1.01-2.13c-3.55-0.4-7.27-1.77-7.27-7.89
		c0-1.74,0.62-3.17,1.65-4.29c-0.17-0.4-0.71-2.03,0.15-4.23c0,0,1.34-0.43,4.39,1.64c1.27-0.35,2.64-0.53,4-0.54
		c1.36,0.01,2.72,0.18,4,0.54c3.05-2.07,4.39-1.64,4.39-1.64c0.87,2.2,0.32,3.82,0.16,4.23c1.02,1.12,1.64,2.54,1.64,4.29
		c0,6.13-3.74,7.48-7.29,7.88c0.57,0.5,1.08,1.47,1.08,2.96c0,2.14-0.02,3.86-0.02,4.38c0,0.42,0.29,0.92,1.1,0.77
		c6.34-2.11,10.91-8.1,10.91-15.15C31.93,7.35,24.78,0.2,15.97,0.2z"/>
	<path d="M6.05,23.13c-0.04,0.08-0.16,0.1-0.27,0.05c-0.12-0.05-0.18-0.16-0.14-0.24c0.03-0.08,0.16-0.1,0.27-0.05
		C6.02,22.94,6.09,23.05,6.05,23.13L6.05,23.13z M5.85,22.98"/>
	<path d="M6.69,23.85c-0.08,0.07-0.23,0.04-0.33-0.07c-0.1-0.11-0.12-0.26-0.05-0.33c0.08-0.07,0.22-0.04,0.33,0.07
		C6.75,23.63,6.77,23.78,6.69,23.85L6.69,23.85z M6.54,23.68"/>
	<path d="M7.32,24.77c-0.1,0.07-0.26,0-0.36-0.14c-0.1-0.14-0.1-0.31,0-0.38c0.1-0.07,0.26-0.01,0.36,0.13
		C7.42,24.53,7.42,24.7,7.32,24.77L7.32,24.77z M7.32,24.77"/>
	<path d="M8.19,25.66c-0.09,0.1-0.27,0.07-0.41-0.06c-0.14-0.13-0.18-0.31-0.09-0.41c0.09-0.1,0.28-0.07,0.41,0.06
		C8.24,25.38,8.28,25.56,8.19,25.66L8.19,25.66z M8.19,25.66"/>
	<path d="M9.38,26.17c-0.04,0.12-0.22,0.18-0.4,0.13c-0.18-0.05-0.3-0.2-0.26-0.33c0.04-0.13,0.22-0.19,0.4-0.13
		C9.29,25.9,9.41,26.04,9.38,26.17L9.38,26.17z M9.38,26.17"/>
	<path d="M10.68,26.27c0,0.13-0.15,0.24-0.34,0.24c-0.19,0-0.35-0.1-0.35-0.23c0-0.13,0.15-0.24,0.34-0.24
		C10.53,26.03,10.68,26.14,10.68,26.27L10.68,26.27z M10.68,26.27"/>
	<path d="M11.9,26.06c0.02,0.13-0.11,0.26-0.3,0.3c-0.19,0.03-0.36-0.05-0.38-0.17c-0.02-0.13,0.11-0.26,0.3-0.3
		C11.7,25.85,11.87,25.93,11.9,26.06L11.9,26.06z M11.9,26.06"/>
</g>
</svg>
