<?xml version="1.0" encoding="utf-8"?>
<!-- Generator: Adobe Illustrator 23.0.4, SVG Export Plug-In . SVG Version: 6.00 Build 0)  -->
<svg version="1.1" id="レイヤー_1" xmlns="http://www.w3.org/2000/svg" xmlns:xlink="http://www.w3.org/1999/xlink" x="0px"
	 y="0px" viewBox="0 0 32 32" style="enable-background:new 0 0 32 32;" xml:space="preserve">
<style type="text/css">
	.st0{fill-rule:evenodd;clip-rule:evenodd;}
	.st1{clip-path:url(#SVGID_4_);}
	.st2{fill:#040000;}
	.st3{fill:#1D1D1B;}
</style>
<g>
	<path d="M19.31,16.94c-1.06-1.19-2.54-1.85-4.43-1.99c1.69-0.46,2.91-1.13,3.68-2.03c0.77-0.9,1.15-2.09,1.15-3.6
		c0.02-1.11-0.25-2.2-0.77-3.18c-0.53-0.92-1.31-1.68-2.25-2.18c-0.86-0.47-1.88-0.81-3.07-1.01c-1.2-0.2-3.3-0.28-6.3-0.28H0v26.65
		h7.53c3.03,0,5.21-0.1,6.55-0.3c1.34-0.21,2.45-0.56,3.35-1.04c1.09-0.56,1.98-1.44,2.57-2.51c0.6-1.08,0.9-2.33,0.9-3.77
		C20.9,19.71,20.38,18.13,19.31,16.94z M6.76,8.57h1.56c1.81,0,3.02,0.2,3.64,0.61c0.62,0.41,0.93,1.11,0.93,2.11s-0.34,1.64-1,2.04
		c-0.66,0.4-1.89,0.59-3.68,0.59H6.76L6.76,8.57L6.76,8.57z M12.95,23.85c-0.72,0.43-1.94,0.65-3.65,0.65H6.76v-5.81h2.65
		c1.76,0,2.98,0.22,3.62,0.67c0.65,0.45,0.99,1.22,0.99,2.35c0,1.13-0.35,1.72-1.08,2.16L12.95,23.85z"/>
	<path d="M28.62,22.57c-1.87,0-3.38,1.51-3.38,3.38c0,1.87,1.51,3.38,3.38,3.38c1.87,0,3.38-1.51,3.38-3.38v0
		C32,24.09,30.49,22.57,28.62,22.57z"/>
	<rect x="25.69" y="2.67" width="5.87" height="17.77"/>
</g>
</svg>
