<?xml version="1.0" encoding="utf-8"?>
<!-- Generator: Adobe Illustrator 23.0.4, SVG Export Plug-In . SVG Version: 6.00 Build 0)  -->
<svg version="1.1" id="レイヤー_1" xmlns="http://www.w3.org/2000/svg" xmlns:xlink="http://www.w3.org/1999/xlink" x="0px"
	 y="0px" viewBox="0 0 32 32" style="enable-background:new 0 0 32 32;" xml:space="preserve">
<style type="text/css">
	.st0{fill-rule:evenodd;clip-rule:evenodd;}
	.st1{clip-path:url(#SVGID_4_);}
	.st2{fill:#040000;}
	.st3{fill:#1D1D1B;}
</style>
<g>
	<path d="M16,2.91c4.27,0,4.78,0.02,6.47,0.09c1.56,0.07,2.41,0.33,2.97,0.55c0.75,0.29,1.28,0.64,1.84,1.2
		c0.56,0.56,0.91,1.09,1.2,1.84c0.22,0.56,0.48,1.41,0.55,2.97c0.08,1.69,0.09,2.19,0.09,6.47s-0.02,4.78-0.09,6.47
		c-0.07,1.56-0.33,2.41-0.55,2.97c-0.29,0.75-0.64,1.28-1.2,1.84c-0.56,0.56-1.09,0.91-1.84,1.2c-0.56,0.22-1.41,0.48-2.97,0.55
		c-1.69,0.08-2.19,0.09-6.47,0.09s-4.78-0.02-6.47-0.09c-1.56-0.07-2.41-0.33-2.97-0.55c-0.75-0.29-1.28-0.64-1.84-1.2
		c-0.56-0.56-0.91-1.09-1.2-1.84c-0.22-0.56-0.48-1.41-0.55-2.97c-0.08-1.69-0.09-2.19-0.09-6.47s0.02-4.78,0.09-6.47
		C3.05,8,3.31,7.16,3.53,6.59c0.29-0.75,0.64-1.28,1.2-1.84c0.56-0.56,1.09-0.91,1.84-1.2C7.13,3.34,7.97,3.07,9.53,3
		C11.22,2.93,11.73,2.91,16,2.91 M16,0.03c-4.35,0-4.89,0.02-6.6,0.1C7.7,0.2,6.54,0.47,5.52,0.87C4.47,1.28,3.57,1.82,2.69,2.71
		C1.8,3.6,1.25,4.49,0.84,5.55C0.44,6.56,0.17,7.73,0.1,9.43C0.02,11.14,0,11.68,0,16.03c0,4.35,0.02,4.89,0.1,6.6
		c0.08,1.7,0.35,2.87,0.74,3.88c0.41,1.05,0.96,1.94,1.85,2.83c0.89,0.89,1.78,1.44,2.83,1.85c1.02,0.4,2.18,0.67,3.88,0.74
		c1.71,0.08,2.25,0.1,6.6,0.1s4.89-0.02,6.6-0.1c1.7-0.08,2.87-0.35,3.88-0.74c1.05-0.41,1.94-0.96,2.83-1.85
		c0.89-0.89,1.44-1.78,1.85-2.83c0.4-1.02,0.67-2.18,0.74-3.88c0.08-1.71,0.1-2.25,0.1-6.6s-0.02-4.89-0.1-6.6
		c-0.08-1.7-0.35-2.87-0.74-3.88c-0.41-1.05-0.96-1.94-1.85-2.83c-0.89-0.89-1.78-1.44-2.83-1.85c-1.02-0.4-2.18-0.67-3.88-0.74
		C20.89,0.05,20.35,0.03,16,0.03L16,0.03z"/>
	<path d="M16,7.81c-4.54,0-8.22,3.68-8.22,8.22c0,4.54,3.68,8.22,8.22,8.22s8.22-3.68,8.22-8.22C24.22,11.49,20.54,7.81,16,7.81z
		 M16,21.36c-2.95,0-5.33-2.39-5.33-5.33c0-2.95,2.39-5.33,5.33-5.33c2.95,0,5.33,2.39,5.33,5.33C21.33,18.97,18.95,21.36,16,21.36z
		"/>
	<circle cx="24.54" cy="7.49" r="1.92"/>
</g>
</svg>
