<?xml version="1.0" encoding="utf-8"?>
<!-- Generator: Adobe Illustrator 23.0.4, SVG Export Plug-In . SVG Version: 6.00 Build 0)  -->
<svg version="1.1" id="レイヤー_1" xmlns="http://www.w3.org/2000/svg" xmlns:xlink="http://www.w3.org/1999/xlink" x="0px"
	 y="0px" viewBox="0 0 32 32" style="enable-background:new 0 0 32 32;" xml:space="preserve">
<style type="text/css">
	.st0{fill-rule:evenodd;clip-rule:evenodd;}
	.st1{clip-path:url(#SVGID_4_);}
	.st2{fill:#040000;}
	.st3{fill:#1D1D1B;}
</style>
<g>
	<polygon points="12.62,12.38 11.69,15 13.54,15 13.54,15 	"/>
	<path d="M16,1.24L16,1.24c-8.84,0-16,5.65-16,12.62c0,4.5,2.99,8.46,7.5,10.69c-0.25,0.85-1.57,5.44-1.63,5.8
		c0,0-0.03,0.27,0.14,0.37c0.18,0.1,0.38,0.02,0.38,0.02c0.5-0.07,5.84-3.82,6.76-4.47c0.92,0.13,1.87,0.2,2.84,0.2
		c8.84,0,16-5.65,16-12.62C32,6.88,24.84,1.24,16,1.24z M8.08,17.37c0,0.49-0.41,0.88-0.92,0.88s-0.92-0.4-0.92-0.88v-5.48H4.79
		c-0.5,0-0.91-0.41-0.91-0.9c0-0.5,0.41-0.9,0.91-0.9h4.73c0.5,0,0.91,0.41,0.91,0.9c0,0.5-0.41,0.9-0.91,0.9H8.08V17.37z
		 M15.83,18.12c-0.18,0.08-0.38,0.13-0.59,0.13v0c-0.38,0-0.68-0.16-0.77-0.41l-0.46-1.2l-2.81,0l-0.46,1.2
		c-0.09,0.25-0.38,0.41-0.77,0.41c-0.2,0-0.4-0.04-0.59-0.13C9.14,18,8.9,17.67,9.18,16.8l2.21-5.81c0.16-0.44,0.63-0.9,1.23-0.91
		c0.6,0.01,1.08,0.47,1.23,0.91l2.21,5.81C16.33,17.68,16.09,18,15.83,18.12z M20.5,18.12h-2.96c-0.49,0-0.88-0.38-0.88-0.85V11
		c0-0.51,0.42-0.92,0.94-0.92c0.52,0,0.94,0.41,0.94,0.92v5.42h1.96c0.49,0,0.88,0.38,0.88,0.85S20.99,18.12,20.5,18.12z
		 M27.73,17.42c-0.03,0.24-0.16,0.46-0.36,0.61c-0.16,0.12-0.35,0.19-0.56,0.19c-0.29,0-0.56-0.13-0.74-0.37l-2.16-2.87l-0.32,0.32
		v2.01c0,0.51-0.41,0.92-0.92,0.92v0c-0.51,0-0.92-0.41-0.92-0.92V11c0-0.51,0.41-0.92,0.92-0.92s0.92,0.41,0.92,0.92v1.98
		l2.58-2.58c0.13-0.13,0.31-0.21,0.51-0.21c0.23,0,0.46,0.1,0.64,0.27c0.16,0.16,0.26,0.37,0.27,0.59c0.01,0.22-0.06,0.42-0.2,0.56
		l-2.1,2.1l2.27,3.01C27.7,16.94,27.76,17.18,27.73,17.42z"/>
</g>
</svg>
