<?xml version="1.0" encoding="utf-8"?>
<!-- Generator: Adobe Illustrator 23.0.4, SVG Export Plug-In . SVG Version: 6.00 Build 0)  -->
<svg version="1.1" id="レイヤー_1" xmlns="http://www.w3.org/2000/svg" xmlns:xlink="http://www.w3.org/1999/xlink" x="0px"
	 y="0px" viewBox="0 0 32 32" style="enable-background:new 0 0 32 32;" xml:space="preserve">
<style type="text/css">
	.st0{fill-rule:evenodd;clip-rule:evenodd;}
	.st1{clip-path:url(#SVGID_4_);}
	.st2{clip-path:url(#SVGID_6_);}
	.st3{clip-path:url(#SVGID_8_);}
</style>
<path d="M24.37,24.89c-6.34,0-8.54-2.86-9.71-6.41l-1.17-3.67c-0.88-2.68-1.91-4.77-5.13-4.77c-2.24,0-4.51,1.61-4.51,6.12
	c0,3.52,1.8,5.72,4.32,5.72c2.86,0,4.77-2.13,4.77-2.13l1.17,3.19c0,0-1.98,1.94-6.12,1.94C2.86,24.89,0,21.88,0,16.31
	c0-5.79,2.86-9.2,8.25-9.2c4.88,0,7.33,1.76,8.87,6.52l1.21,3.67c0.88,2.68,2.42,4.62,6.12,4.62c2.49,0,3.81-0.55,3.81-1.91
	c0-1.06-0.62-1.83-2.49-2.27l-2.49-0.59c-3.04-0.73-4.25-2.31-4.25-4.8c0-4,3.23-5.24,6.53-5.24c3.74,0,6.01,1.36,6.31,4.66
	l-3.67,0.44c-0.15-1.58-1.1-2.24-2.86-2.24c-1.61,0-2.6,0.73-2.6,1.98c0,1.1,0.48,1.76,2.09,2.13l2.35,0.51
	c3.15,0.73,4.84,2.27,4.84,5.24C32,23.5,28.92,24.89,24.37,24.89z"/>
</svg>
