<?xml version="1.0" encoding="utf-8"?>
<!-- Generator: Adobe Illustrator 23.0.4, SVG Export Plug-In . SVG Version: 6.00 Build 0)  -->
<svg version="1.1" id="レイヤー_1" xmlns="http://www.w3.org/2000/svg" xmlns:xlink="http://www.w3.org/1999/xlink" x="0px"
	 y="0px" viewBox="0 0 32 32" style="enable-background:new 0 0 32 32;" xml:space="preserve">
<style type="text/css">
	.st0{fill-rule:evenodd;clip-rule:evenodd;}
	.st1{clip-path:url(#SVGID_4_);}
	.st2{fill:#040000;}
	.st3{fill:#1D1D1B;}
</style>
<path d="M31.98,13.74c0-7.15-7.17-12.98-15.99-12.98C7.17,0.77,0,6.59,0,13.74c0,6.41,5.69,11.79,13.37,12.8
	c0.52,0.11,1.23,0.34,1.41,0.79c0.16,0.4,0.11,1.04,0.05,1.45c0,0-0.19,1.13-0.23,1.37c-0.07,0.4-0.32,1.58,1.38,0.86
	c1.71-0.72,9.21-5.42,12.56-9.28h0C30.87,19.18,31.98,16.6,31.98,13.74z M10.35,17.56c0,0.17-0.14,0.31-0.31,0.31H5.56h0
	c-0.08,0-0.16-0.03-0.22-0.09c0,0,0,0,0,0c0,0,0,0,0,0c-0.05-0.06-0.09-0.13-0.09-0.21v0v-6.97c0-0.17,0.14-0.31,0.31-0.31h1.12
	c0.17,0,0.31,0.14,0.31,0.31v5.53h3.05c0.17,0,0.31,0.14,0.31,0.31V17.56z M13.05,17.56c0,0.17-0.14,0.31-0.31,0.31h-1.12
	c-0.17,0-0.31-0.14-0.31-0.31v-6.97c0-0.17,0.14-0.31,0.31-0.31h1.12c0.17,0,0.31,0.14,0.31,0.31V17.56z M20.77,17.56
	c0,0.17-0.14,0.31-0.31,0.31h-1.12c-0.03,0-0.05,0-0.08-0.01c0,0,0,0,0,0c-0.01,0-0.01,0-0.02-0.01c0,0-0.01,0-0.01,0
	c-0.01,0-0.01,0-0.02-0.01c-0.01,0-0.01,0-0.01-0.01c0,0-0.01,0-0.01,0c-0.01,0-0.01-0.01-0.02-0.01c0,0,0,0,0,0
	c-0.03-0.02-0.06-0.05-0.08-0.08l-3.2-4.32v4.14c0,0.17-0.14,0.31-0.31,0.31h-1.12c-0.17,0-0.31-0.14-0.31-0.31v-6.97
	c0-0.17,0.14-0.31,0.31-0.31h1.12c0,0,0.01,0,0.01,0c0.01,0,0.01,0,0.02,0c0.01,0,0.01,0,0.02,0c0,0,0.01,0,0.01,0
	c0.01,0,0.01,0,0.02,0c0,0,0.01,0,0.01,0c0.01,0,0.01,0,0.02,0.01c0,0,0.01,0,0.01,0c0.01,0,0.01,0.01,0.02,0.01c0,0,0.01,0,0.01,0
	c0.01,0,0.01,0.01,0.02,0.01c0,0,0.01,0,0.01,0.01c0.01,0,0.01,0.01,0.02,0.01c0,0,0.01,0,0.01,0.01c0.01,0,0.01,0.01,0.02,0.01
	c0,0,0,0,0.01,0.01c0.01,0.01,0.01,0.01,0.02,0.02c0,0,0,0,0,0c0.01,0.01,0.02,0.02,0.02,0.03l3.19,4.31v-4.14
	c0-0.17,0.14-0.31,0.31-0.31h1.12c0.17,0,0.31,0.14,0.31,0.31V17.56z M26.96,11.72c0,0.17-0.14,0.31-0.31,0.31h-3.05v1.18h3.05
	c0.17,0,0.31,0.14,0.31,0.31v1.12c0,0.17-0.14,0.31-0.31,0.31h-3.05v1.18h3.05c0.17,0,0.31,0.14,0.31,0.31v1.12
	c0,0.17-0.14,0.31-0.31,0.31h-4.48h0c-0.08,0-0.16-0.03-0.22-0.09c0,0,0,0,0,0c0,0,0,0,0,0c-0.05-0.06-0.09-0.13-0.09-0.22v0V10.6v0
	c0-0.08,0.03-0.16,0.09-0.21c0,0,0,0,0.01-0.01c0,0,0,0,0,0c0.06-0.05,0.13-0.09,0.22-0.09h0h4.48c0.17,0,0.31,0.14,0.31,0.31V11.72
	z"/>
</svg>
