<?xml version="1.0" encoding="utf-8"?>
<!-- Generator: Adobe Illustrator 23.0.4, SVG Export Plug-In . SVG Version: 6.00 Build 0)  -->
<svg version="1.1" id="レイヤー_1" xmlns="http://www.w3.org/2000/svg" xmlns:xlink="http://www.w3.org/1999/xlink" x="0px"
	 y="0px" viewBox="0 0 32 32" style="enable-background:new 0 0 32 32;" xml:space="preserve">
<style type="text/css">
	.st0{fill-rule:evenodd;clip-rule:evenodd;}
	.st1{clip-path:url(#SVGID_4_);}
	.st2{fill:#040000;}
	.st3{fill:#1D1D1B;}
</style>
<g>
	<path d="M7.23,3.64c0,1.89-1.39,3.41-3.68,3.41C1.39,7.05,0,5.52,0,3.64c0-1.93,1.44-3.41,3.64-3.41C5.84,0.22,7.19,1.71,7.23,3.64
		z M0.18,31.71V9.75h6.83v21.96H0.18z"/>
	<path d="M11.09,16.75c0-2.74-0.09-5.03-0.18-7.01h5.93l0.31,3.05h0.13c0.9-1.44,3.1-3.55,6.78-3.55c4.49,0,7.86,3.01,7.86,9.48
		v12.98h-6.83V19.54c0-2.83-0.99-4.76-3.46-4.76c-1.89,0-3.01,1.3-3.5,2.56c-0.18,0.45-0.23,1.08-0.23,1.71v12.67h-6.83V16.75z"/>
</g>
</svg>
