<?xml version="1.0" encoding="utf-8"?>
<!-- Generator: Adobe Illustrator 23.0.4, SVG Export Plug-In . SVG Version: 6.00 Build 0)  -->
<svg version="1.1" id="レイヤー_1" xmlns="http://www.w3.org/2000/svg" xmlns:xlink="http://www.w3.org/1999/xlink" x="0px"
	 y="0px" viewBox="0 0 32 32" style="enable-background:new 0 0 32 32;" xml:space="preserve">
<style type="text/css">
	.st0{fill-rule:evenodd;clip-rule:evenodd;}
	.st1{clip-path:url(#SVGID_4_);}
	.st2{fill:#040000;}
	.st3{fill:#1D1D1B;}
</style>
<g>
	<path class="st3" d="M29.14,28.57c0.72,0,1.34-0.24,1.87-0.71l-9.06-9.07c-0.22,0.16-0.43,0.31-0.63,0.45
		c-0.68,0.5-1.23,0.89-1.65,1.17c-0.42,0.28-0.99,0.56-1.69,0.86c-0.7,0.29-1.36,0.44-1.97,0.44h-0.03c-0.61,0-1.26-0.15-1.97-0.44
		c-0.7-0.29-1.27-0.58-1.69-0.86c-0.42-0.28-0.97-0.67-1.65-1.17c-0.19-0.14-0.4-0.29-0.63-0.45l-9.07,9.07
		c0.53,0.47,1.15,0.71,1.87,0.71H29.14z M29.14,28.57"/>
	<path class="st3" d="M1.8,13.09c-0.68-0.45-1.28-0.97-1.8-1.55v13.79l7.99-7.99C6.39,16.22,4.33,14.81,1.8,13.09L1.8,13.09z
		 M1.8,13.09"/>
	<path class="st3" d="M30.21,13.09c-2.43,1.65-4.5,3.06-6.2,4.25L32,25.33V11.54C31.49,12.11,30.89,12.62,30.21,13.09L30.21,13.09z
		 M30.21,13.09"/>
	<path class="st3" d="M29.14,3.43H2.86c-0.92,0-1.62,0.31-2.12,0.93C0.25,4.98,0,5.75,0,6.68c0,0.75,0.33,1.56,0.98,2.44
		c0.65,0.87,1.35,1.56,2.09,2.06c0.4,0.28,1.62,1.13,3.66,2.55c1.1,0.76,2.05,1.43,2.88,2c0.7,0.49,1.3,0.91,1.8,1.26
		c0.06,0.04,0.15,0.1,0.27,0.19c0.13,0.09,0.29,0.21,0.49,0.36c0.39,0.28,0.71,0.51,0.96,0.68c0.26,0.17,0.57,0.37,0.93,0.58
		c0.36,0.21,0.71,0.38,1.03,0.48c0.32,0.11,0.62,0.16,0.89,0.16h0.03c0.27,0,0.57-0.05,0.89-0.16c0.32-0.11,0.66-0.27,1.03-0.48
		c0.36-0.22,0.67-0.41,0.93-0.58c0.26-0.17,0.58-0.4,0.97-0.68c0.2-0.15,0.36-0.26,0.49-0.36c0.12-0.09,0.21-0.15,0.27-0.19
		c0.39-0.27,0.99-0.69,1.81-1.26c1.48-1.03,3.66-2.54,6.55-4.55c0.87-0.61,1.6-1.34,2.18-2.2C31.71,8.12,32,7.23,32,6.29
		c0-0.79-0.28-1.46-0.85-2.02C30.59,3.71,29.92,3.43,29.14,3.43L29.14,3.43z M29.14,3.43"/>
</g>
</svg>
