<?xml version="1.0" encoding="utf-8"?>
<!-- Generator: Adobe Illustrator 23.0.4, SVG Export Plug-In . SVG Version: 6.00 Build 0)  -->
<svg version="1.1" id="レイヤー_1" xmlns="http://www.w3.org/2000/svg" xmlns:xlink="http://www.w3.org/1999/xlink" x="0px"
	 y="0px" viewBox="0 0 32 32" style="enable-background:new 0 0 32 32;" xml:space="preserve">
<style type="text/css">
	.st0{fill-rule:evenodd;clip-rule:evenodd;}
	.st1{clip-path:url(#SVGID_4_);}
	.st2{fill:#040000;}
	.st3{fill:#1D1D1B;}
</style>
<path d="M16.08,0.11c-8.97,0-15.92,6.57-15.92,15.44c0,4.64,1.9,8.65,5,11.42c0.26,0.23,0.42,0.56,0.43,0.91l0.09,2.83
	c0.03,0.9,0.96,1.49,1.79,1.13l3.16-1.39c0.27-0.12,0.57-0.14,0.85-0.06c1.45,0.4,3,0.61,4.61,0.61c8.97,0,15.92-6.57,15.92-15.44
	S25.05,0.11,16.08,0.11z M25.64,11.99l-4.68,7.42c-0.74,1.18-2.34,1.47-3.45,0.64l-3.72-2.79c-0.34-0.26-0.81-0.25-1.15,0
	l-5.02,3.81c-0.67,0.51-1.55-0.29-1.1-1.01l4.68-7.42c0.74-1.18,2.34-1.47,3.45-0.64l3.72,2.79c0.34,0.26,0.81,0.25,1.15,0
	l5.02-3.81C25.21,10.48,26.09,11.28,25.64,11.99z"/>
</svg>
