<?xml version="1.0" encoding="utf-8"?>
<!-- Generator: Adobe Illustrator 23.0.4, SVG Export Plug-In . SVG Version: 6.00 Build 0)  -->
<svg version="1.1" id="レイヤー_1" xmlns="http://www.w3.org/2000/svg" xmlns:xlink="http://www.w3.org/1999/xlink" x="0px"
	 y="0px" viewBox="0 0 32 32" style="enable-background:new 0 0 32 32;" xml:space="preserve">
<style type="text/css">
	.st0{fill-rule:evenodd;clip-rule:evenodd;}
	.st1{clip-path:url(#SVGID_4_);}
	.st2{fill:#040000;}
	.st3{fill:#1D1D1B;}
</style>
<g>
	<g>
		<path d="M29.25,25.43c-0.2,0-0.41-0.06-0.59-0.18c-0.49-0.33-0.62-0.99-0.29-1.48c0.98-1.47,1.5-3.18,1.5-4.96
			c0-1.78-0.52-3.5-1.5-4.96c-0.33-0.49-0.2-1.15,0.29-1.48c0.49-0.33,1.15-0.2,1.48,0.29C31.36,14.48,32,16.6,32,18.81
			c0,2.2-0.64,4.33-1.86,6.15C29.93,25.26,29.6,25.43,29.25,25.43L29.25,25.43z"/>
	</g>
	<g>
		<path d="M26.21,23.7c-0.21,0-0.41-0.06-0.6-0.18c-0.49-0.33-0.61-0.99-0.28-1.48c0.65-0.96,0.99-2.07,0.99-3.23
			c0-1.16-0.34-2.27-0.99-3.23c-0.33-0.49-0.2-1.15,0.28-1.48c0.49-0.33,1.15-0.2,1.48,0.28c0.89,1.31,1.36,2.84,1.36,4.43
			c0,1.58-0.47,3.12-1.36,4.43C26.89,23.54,26.55,23.7,26.21,23.7L26.21,23.7z"/>
	</g>
	<path d="M21.24,14.17c-0.42-4.26-4.03-7.6-8.4-7.6C9.21,6.57,6,8.9,4.84,12.29C2.11,12.69,0,15.05,0,17.89
		c0,3.12,2.55,5.67,5.68,5.67h14.54c2.62,0,4.75-2.13,4.75-4.75C24.97,16.54,23.37,14.64,21.24,14.17z M20.21,21.43H5.68
		c-1.96,0-3.55-1.59-3.55-3.54c0-1.95,1.59-3.54,3.55-3.54c0.95,0,1.84,0.37,2.51,1.04c0.42,0.42,1.09,0.42,1.5,0
		c0.42-0.42,0.42-1.09,0-1.5c-0.73-0.73-1.63-1.23-2.61-1.48c1.01-2.22,3.25-3.7,5.75-3.7c3.48,0,6.32,2.83,6.32,6.31
		c0,0.68-0.11,1.34-0.32,1.97c-0.18,0.56,0.12,1.16,0.67,1.34c0.11,0.04,0.22,0.05,0.34,0.05c0.45,0,0.86-0.28,1.01-0.73
		c0.14-0.42,0.24-0.85,0.31-1.28c0.98,0.38,1.67,1.33,1.67,2.44C22.84,20.25,21.66,21.43,20.21,21.43z"/>
</g>
</svg>
