<?xml version="1.0" encoding="utf-8"?>
<!-- Generator: Adobe Illustrator 23.0.4, SVG Export Plug-In . SVG Version: 6.00 Build 0)  -->
<svg version="1.1" id="レイヤー_1" xmlns="http://www.w3.org/2000/svg" xmlns:xlink="http://www.w3.org/1999/xlink" x="0px"
	 y="0px" viewBox="0 0 32 32" style="enable-background:new 0 0 32 32;" xml:space="preserve">
<style type="text/css">
	.st0{fill-rule:evenodd;clip-rule:evenodd;}
	.st1{clip-path:url(#SVGID_4_);}
	.st2{clip-path:url(#SVGID_6_);}
	.st3{clip-path:url(#SVGID_8_);}
</style>
<path d="M31.91,13.99c0-7.42-7.12-13.13-15.91-12.77C7.21,1.59,0.09,7.9,0.09,15.32c0,7.42,7.12,13.13,15.91,12.77
	c0.44-0.02,0.87-0.06,1.29-0.1v2.81c0,0,14.6-4.24,14.6-16.14l0,0C31.91,14.43,31.91,14.21,31.91,13.99z M24.9,20.68h-2.02v-7.82
	c-0.04-0.42-0.16-0.82-0.43-1.18c-0.31-0.41-0.71-0.68-1.2-0.76c-0.78-0.13-1.55-0.06-2.25,0.37c-0.61,0.37-1.02,0.91-1.32,1.56
	c-0.19,0.41-0.3,0.84-0.35,1.28v6.56h-2.02v-7.58c-0.04-0.4-0.13-0.8-0.32-1.17c-0.24-0.47-0.6-0.79-1.11-0.93
	c-0.95-0.27-1.83-0.12-2.65,0.41c-0.59,0.38-0.98,0.93-1.24,1.58c-0.25,0.63-0.32,1.29-0.32,1.96c-0.01,1.82,0,5.72,0,5.72H7.66
	V9.31h2.02l0,2.12c0,0,0.2-0.33,0.25-0.38c0.31-0.33,0.59-0.7,0.93-0.99c1-0.83,2.18-1.08,3.45-0.87c1.03,0.17,1.84,0.71,2.38,1.62
	c0.07,0.11,0.13,0.22,0.19,0.33c0.06,0.1,0.14,0.3,0.14,0.3s0.09-0.2,0.16-0.29c0.17-0.22,0.34-0.45,0.54-0.64
	c0.94-0.89,2.06-1.35,3.36-1.38c0.53-0.01,1.05,0.03,1.56,0.2c0.98,0.33,1.59,1.03,1.92,1.98c0.23,0.67,0.33,1.37,0.33,2.07V20.68z
	 M24.9,13.39c0,0.01,0,0.01,0,0.02c0,0.01,0,0.01,0,0C24.9,13.41,24.9,13.4,24.9,13.39z"/>
</svg>
