<?xml version="1.0" encoding="utf-8"?>
<!-- Generator: Adobe Illustrator 23.0.4, SVG Export Plug-In . SVG Version: 6.00 Build 0)  -->
<svg version="1.1" id="レイヤー_1" xmlns="http://www.w3.org/2000/svg" xmlns:xlink="http://www.w3.org/1999/xlink" x="0px"
	 y="0px" viewBox="0 0 32 32" style="enable-background:new 0 0 32 32;" xml:space="preserve">
<style type="text/css">
	.st0{fill-rule:evenodd;clip-rule:evenodd;}
	.st1{clip-path:url(#SVGID_4_);}
	.st2{fill:#040000;}
	.st3{fill:#1D1D1B;}
</style>
<g>
	<path d="M23.31,0H9.04C7.85,0,6.88,0.97,6.88,2.16v27.68c0,1.19,0.97,2.16,2.16,2.16h14.27c1.19,0,2.16-0.97,2.16-2.16V2.16
		C25.47,0.97,24.49,0,23.31,0L23.31,0z M13.89,1.56h4.56c0.15,0,0.26,0.12,0.26,0.26c0,0.14-0.12,0.26-0.26,0.26h-4.56
		c-0.15,0-0.26-0.12-0.26-0.26C13.63,1.67,13.74,1.56,13.89,1.56L13.89,1.56z M16.17,30.92c-0.6,0-1.08-0.48-1.08-1.08
		c0-0.6,0.48-1.08,1.08-1.08c0.6,0,1.08,0.48,1.08,1.08C17.25,30.44,16.77,30.92,16.17,30.92L16.17,30.92z M23.96,28H8.38V3.43
		h15.58V28z M23.96,28"/>
</g>
</svg>
