<?xml version="1.0" encoding="utf-8"?>
<!-- Generator: Adobe Illustrator 23.0.4, SVG Export Plug-In . SVG Version: 6.00 Build 0)  -->
<svg version="1.1" id="レイヤー_1" xmlns="http://www.w3.org/2000/svg" xmlns:xlink="http://www.w3.org/1999/xlink" x="0px"
	 y="0px" viewBox="0 0 32 32" style="enable-background:new 0 0 32 32;" xml:space="preserve">
<style type="text/css">
	.st0{fill-rule:evenodd;clip-rule:evenodd;}
	.st1{clip-path:url(#SVGID_4_);}
	.st2{fill:#040000;}
	.st3{fill:#1D1D1B;}
</style>
<g id="_x36_ULWQe.tif">
	<g>
		<path d="M16.82,0.09C17.9,0.29,19,0.43,20.07,0.7c6.04,1.54,10.77,6.81,11.63,12.93c0.04,0.26,0.03,0.53,0.05,0.88
			c-2.69,0-5.36,0-8.02,0c-1.59-4.27-4.08-6.3-7.71-6.3c-3.64,0-6.1,2.02-7.74,6.37c-2.42,0-4.87,0-7.32,0
			c-0.2,0-0.39-0.02-0.76-0.05c0.2-1,0.32-1.96,0.57-2.87C2.51,5.44,7.98,0.89,14.43,0.26c0.26-0.03,0.52-0.11,0.78-0.17
			C15.75,0.09,16.28,0.09,16.82,0.09z"/>
		<path d="M15.21,31.91c-1.05-0.2-2.11-0.34-3.14-0.6C5.97,29.78,1.3,24.65,0.34,18.47c-0.05-0.3-0.05-0.6-0.08-0.98
			c2.7,0,5.36,0,8.03,0c1.66,4.3,4.07,6.28,7.71,6.28c3.64,0.01,6.13-2.03,7.73-6.32c2.63,0,5.27,0,8.07,0
			c-0.14,0.8-0.23,1.56-0.41,2.29c-1.66,6.62-7.11,11.32-13.91,12.01c-0.23,0.02-0.45,0.11-0.67,0.17
			C16.28,31.91,15.75,31.91,15.21,31.91z"/>
		<path d="M15.98,19.75c-2.05-0.02-3.76-1.71-3.76-3.71c-0.01-2.06,1.71-3.78,3.78-3.79c2.06-0.01,3.84,1.75,3.81,3.76
			C19.78,18.09,18.05,19.77,15.98,19.75z"/>
	</g>
</g>
</svg>
