<?xml version="1.0" encoding="utf-8"?>
<!-- Generator: Adobe Illustrator 23.0.4, SVG Export Plug-In . SVG Version: 6.00 Build 0)  -->
<svg version="1.1" id="レイヤー_1" xmlns="http://www.w3.org/2000/svg" xmlns:xlink="http://www.w3.org/1999/xlink" x="0px"
	 y="0px" viewBox="0 0 32 32" style="enable-background:new 0 0 32 32;" xml:space="preserve">
<style type="text/css">
	.st0{fill-rule:evenodd;clip-rule:evenodd;}
	.st1{clip-path:url(#SVGID_4_);}
	.st2{fill:#040000;}
	.st3{fill:#1D1D1B;}
</style>
<path d="M28.39,7.42H18.36l5.83-5.79L22.74,0.2l-6.77,6.73l-6.75-6.7L7.78,1.66l5.8,5.76H3.61c-1.46,0-2.65,1.18-2.65,2.63v15.8
	c0,1.46,1.19,2.63,2.65,2.63h3.13l1.71,2.75c0.17,0.25,0.37,0.3,0.55,0.3c0.19,0,0.4-0.08,0.55-0.3l1.71-2.75h9.16l1.71,2.75
	c0.17,0.25,0.37,0.3,0.55,0.3c0.19,0,0.4-0.08,0.54-0.3l1.71-2.75h3.46c1.47,0,2.65-1.17,2.65-2.63v-15.8
	C31.04,8.6,29.86,7.42,28.39,7.42z"/>
</svg>
