<?xml version="1.0" encoding="utf-8"?>
<!-- Generator: Adobe Illustrator 23.0.4, SVG Export Plug-In . SVG Version: 6.00 Build 0)  -->
<svg version="1.1" id="レイヤー_1" xmlns="http://www.w3.org/2000/svg" xmlns:xlink="http://www.w3.org/1999/xlink" x="0px"
	 y="0px" viewBox="0 0 32 32" style="enable-background:new 0 0 32 32;" xml:space="preserve">
<style type="text/css">
	.st0{fill-rule:evenodd;clip-rule:evenodd;}
	.st1{clip-path:url(#SVGID_4_);}
	.st2{fill:#040000;}
	.st3{fill:#1D1D1B;}
</style>
<path d="M5.87,27.98h20.26V4.06H11.51c-0.12,0-0.28,0.08-0.35,0.2C9.42,6.11,7.72,8,6.03,9.85c-0.08,0.08-0.16,0.28-0.16,0.47
	L5.87,27.98z M28.14,0c1.14,0,2.05,0.91,2.05,2.01v27.98c0,1.1-0.91,2.01-2.01,2.01H3.86c-1.14,0.04-2.05-0.87-2.05-2.01
	c0-0.24,0-19.7,0-20.49S2.05,8.04,2.6,7.45l6.11-6.62C9.22,0.28,9.85,0,10.6,0H28.14z M9.93,14.11c-0.91,0-1.62-0.71-1.62-1.62
	s0.71-1.62,1.62-1.62h2.76V8.12c0-0.91,0.71-1.62,1.62-1.62c0.91,0,1.62,0.71,1.62,1.62v4.37c0,0.91-0.71,1.62-1.62,1.62H9.93z"/>
</svg>
