<?xml version="1.0" encoding="utf-8"?>
<!-- Generator: Adobe Illustrator 23.0.4, SVG Export Plug-In . SVG Version: 6.00 Build 0)  -->
<svg version="1.1" id="レイヤー_1" xmlns="http://www.w3.org/2000/svg" xmlns:xlink="http://www.w3.org/1999/xlink" x="0px"
	 y="0px" viewBox="0 0 32 32" style="enable-background:new 0 0 32 32;" xml:space="preserve">
<style type="text/css">
	.st0{fill-rule:evenodd;clip-rule:evenodd;}
	.st1{clip-path:url(#SVGID_4_);}
	.st2{fill:#040000;}
	.st3{fill:#1D1D1B;}
</style>
<path d="M12.55,26.73c0.24-0.94,1.25-4.78,1.25-4.78c0.66,1.25,2.57,2.31,4.61,2.31c6.06,0,10.43-5.58,10.43-12.5
	c0-6.64-5.42-11.61-12.39-11.61c-8.67,0-13.28,5.82-13.28,12.16c0,2.95,1.57,6.62,4.08,7.79c0.38,0.18,0.58,0.1,0.67-0.27
	c0.07-0.28,0.41-1.64,0.56-2.28c0.05-0.2,0.02-0.38-0.14-0.58c-0.83-1.01-1.5-2.86-1.5-4.59c0-4.43,3.36-8.72,9.08-8.72
	c4.94,0,8.4,3.37,8.4,8.18c0,5.44-2.75,9.2-6.32,9.2c-1.97,0-3.45-1.63-2.98-3.63c0.57-2.39,1.66-4.97,1.66-6.69
	c0-1.54-0.83-2.83-2.54-2.83c-2.02,0-3.64,2.09-3.64,4.88c0,1.78,0.6,2.98,0.6,2.98s-1.99,8.42-2.36,9.99
	c-0.4,1.74-0.25,4.18-0.07,5.77c0.45,0.18,0.91,0.34,1.37,0.48C10.87,30.66,12.09,28.48,12.55,26.73z"/>
</svg>
