<?xml version="1.0" encoding="utf-8"?>
<!-- Generator: Adobe Illustrator 23.0.4, SVG Export Plug-In . SVG Version: 6.00 Build 0)  -->
<svg version="1.1" id="レイヤー_1" xmlns="http://www.w3.org/2000/svg" xmlns:xlink="http://www.w3.org/1999/xlink" x="0px"
	 y="0px" viewBox="0 0 32 32" style="enable-background:new 0 0 32 32;" xml:space="preserve">
<style type="text/css">
	.st0{fill-rule:evenodd;clip-rule:evenodd;}
	.st1{clip-path:url(#SVGID_4_);}
	.st2{fill:#040000;}
	.st3{fill:#1D1D1B;}
</style>
<path class="st0" d="M27.87,5.16c-2.48-2.17-5.95-3.42-9.98-3.42C7.37,1.74,0.22,9.86,0.22,9.86l2.01,3.2c0,0,1.11,0.09,0.52-1.79
	c0.51-0.96,1.51-2.26,3.46-3.76v21.31c-0.84,0.24-1.95,0.68-1.19,1.44h5.79c0.76-0.76-0.44-1.23-1.17-1.44v-5.03
	c0,0,3.97,1.56,8.25,1.56c3.76,0,7.18-1.12,9.72-3.14c2.54-2.01,4.18-5.01,4.17-8.44C31.79,10.41,30.35,7.32,27.87,5.16
	 M17.53,23.36c-3.29,0-6.06-0.64-7.89-1.54v-4.58V5.84c2.01-1.43,5.26-2.31,7.89-2.3c3.19,0,5.7,1.21,7.4,3.04
	c1.69,1.84,2.62,4.29,2.63,7.14c-0.01,2.77-1,5.06-2.76,6.81C23.04,22.27,20.48,23.36,17.53,23.36z"/>
</svg>
