<?xml version="1.0" encoding="utf-8"?>
<!-- Generator: Adobe Illustrator 23.0.4, SVG Export Plug-In . SVG Version: 6.00 Build 0)  -->
<svg version="1.1" id="レイヤー_1" xmlns="http://www.w3.org/2000/svg" xmlns:xlink="http://www.w3.org/1999/xlink" x="0px"
	 y="0px" viewBox="0 0 32 32" style="enable-background:new 0 0 32 32;" xml:space="preserve">
<style type="text/css">
	.st0{fill-rule:evenodd;clip-rule:evenodd;}
	.st1{clip-path:url(#SVGID_4_);}
	.st2{clip-path:url(#SVGID_6_);}
	.st3{clip-path:url(#SVGID_8_);}
</style>
<path d="M2.8,2.21C1.06,2.32,0,3.32,0,5.09v10.6c0,8.61,8.56,15.38,15.97,15.33C24.3,30.96,32,23.92,32,15.69V5.09
	c0-1.78-1.12-2.78-2.88-2.88L2.8,2.21L2.8,2.21z M9.55,10.83l6.43,6.11l6.43-6.11c2.88-1.21,4.14,2.08,2.95,3.04l-8.38,8
	c-0.27,0.26-1.74,0.26-2.01,0l-8.38-8C5.46,12.81,6.93,9.47,9.55,10.83L9.55,10.83z"/>
</svg>
