<?xml version="1.0" encoding="utf-8"?>
<!-- Generator: Adobe Illustrator 23.0.4, SVG Export Plug-In . SVG Version: 6.00 Build 0)  -->
<svg version="1.1" id="レイヤー_1" xmlns="http://www.w3.org/2000/svg" xmlns:xlink="http://www.w3.org/1999/xlink" x="0px"
	 y="0px" viewBox="0 0 32 32" style="enable-background:new 0 0 32 32;" xml:space="preserve">
<style type="text/css">
	.st0{fill-rule:evenodd;clip-rule:evenodd;}
	.st1{clip-path:url(#SVGID_4_);}
	.st2{fill:#040000;}
	.st3{fill:#1D1D1B;}
</style>
<g>
	<g id="c40_rss">
		<path d="M4.74,22.52C2.13,22.52,0,24.64,0,27.26C0,29.87,2.13,32,4.74,32s4.74-2.13,4.74-4.74C9.49,24.64,7.36,22.52,4.74,22.52z"
			/>
		<path d="M0.49,10.47c-0.27,0-0.49,0.22-0.49,0.5v6.02c0,0.27,0.22,0.49,0.49,0.49c7.73,0,14.03,6.29,14.03,14.03
			c0,0.27,0.22,0.49,0.49,0.49h6.02h0.02c0.27,0,0.5-0.22,0.5-0.49l-0.02-0.15C21.44,19.83,12.04,10.47,0.49,10.47z"/>
		<path d="M31.97,31.35C31.89,14.06,17.8,0.03,0.49,0.03C0.22,0.03,0,0.25,0,0.52v6.2c0,0.27,0.22,0.49,0.49,0.49
			c13.4,0,24.29,10.9,24.29,24.29c0,0.27,0.22,0.49,0.49,0.49h6.2h0.03c0.27,0,0.5-0.22,0.5-0.49L31.97,31.35z"/>
	</g>
</g>
</svg>
