<?xml version="1.0" encoding="utf-8"?>
<!-- Generator: Adobe Illustrator 23.0.4, SVG Export Plug-In . SVG Version: 6.00 Build 0)  -->
<svg version="1.1" id="レイヤー_1" xmlns="http://www.w3.org/2000/svg" xmlns:xlink="http://www.w3.org/1999/xlink" x="0px"
	 y="0px" viewBox="0 0 32 32" style="enable-background:new 0 0 32 32;" xml:space="preserve">
<style type="text/css">
	.st0{fill-rule:evenodd;clip-rule:evenodd;}
	.st1{clip-path:url(#SVGID_4_);}
	.st2{fill:#040000;}
	.st3{fill:#1D1D1B;}
</style>
<path d="M16.06,25.65c-5.3,0-7.72-2.7-7.72-4.68c0-1.02,0.8-1.72,1.81-1.72c2.27,0,1.68,3.4,5.91,3.4c2.17,0,3.43-1.3,3.43-2.52
	c0-0.74-0.42-1.55-1.85-1.91l-4.71-1.19c-3.8-0.96-4.46-3.08-4.46-5.03c0-4.07,3.72-5.54,7.26-5.54c3.26,0,7.14,1.8,7.14,4.24
	c0,1.05-0.88,1.61-1.9,1.61c-1.94,0-1.61-2.72-5.51-2.72c-1.94,0-2.96,0.91-2.96,2.18c0,1.27,1.5,1.7,2.82,2.01l3.49,0.79
	c3.82,0.86,4.84,3.1,4.84,5.24C23.66,23.1,21.1,25.65,16.06,25.65 M30.69,18.65c0.15-0.85,0.22-1.72,0.22-2.61
	c0-8.29-6.68-15-14.92-15c-0.89,0-1.75,0.08-2.59,0.22c-1.3-0.75-2.8-1.17-4.4-1.17c-4.9,0-8.87,4-8.87,8.92
	c0,1.61,0.42,3.12,1.17,4.42c-0.15,0.85-0.22,1.72-0.22,2.61c0,8.29,6.68,15.01,14.92,15.01c0.88,0,1.75-0.08,2.59-0.23
	c1.3,0.75,2.8,1.17,4.4,1.17c4.9,0,8.87-3.99,8.87-8.92C31.86,21.47,31.44,19.96,30.69,18.65"/>
</svg>
