<?xml version="1.0" encoding="utf-8"?>
<!-- Generator: Adobe Illustrator 23.0.4, SVG Export Plug-In . SVG Version: 6.00 Build 0)  -->
<svg version="1.1" id="レイヤー_1" xmlns="http://www.w3.org/2000/svg" xmlns:xlink="http://www.w3.org/1999/xlink" x="0px"
	 y="0px" viewBox="0 0 32 32" style="enable-background:new 0 0 32 32;" xml:space="preserve">
<style type="text/css">
	.st0{fill-rule:evenodd;clip-rule:evenodd;}
	.st1{clip-path:url(#SVGID_4_);}
	.st2{clip-path:url(#SVGID_6_);}
	.st3{clip-path:url(#SVGID_8_);}
</style>
<g>
	<g>
		<path d="M6.72,20.22c0,1.85-1.51,3.36-3.36,3.36S0,22.07,0,20.22c0-1.85,1.51-3.36,3.36-3.36h3.36V20.22z"/>
		<path d="M8.42,20.22c0-1.85,1.51-3.36,3.36-3.36s3.36,1.51,3.36,3.36v8.42c0,1.85-1.51,3.36-3.36,3.36s-3.36-1.51-3.36-3.36
			L8.42,20.22z"/>
	</g>
	<g>
		<path d="M11.78,6.72c-1.85,0-3.36-1.51-3.36-3.36S9.93,0,11.78,0s3.36,1.51,3.36,3.36v3.36H11.78z"/>
		<path d="M11.78,8.42c1.85,0,3.36,1.51,3.36,3.36s-1.51,3.36-3.36,3.36H3.36C1.51,15.14,0,13.63,0,11.78s1.51-3.36,3.36-3.36
			L11.78,8.42z"/>
	</g>
	<g>
		<path d="M25.28,11.78c0-1.85,1.51-3.36,3.36-3.36c1.85,0,3.36,1.51,3.36,3.36s-1.51,3.36-3.36,3.36h-3.36V11.78z"/>
		<path d="M23.58,11.78c0,1.85-1.51,3.36-3.36,3.36c-1.85,0-3.36-1.51-3.36-3.36V3.36c0-1.85,1.51-3.36,3.36-3.36
			c1.85,0,3.36,1.51,3.36,3.36V11.78z"/>
	</g>
	<g>
		<path d="M20.22,25.28c1.85,0,3.36,1.51,3.36,3.36c0,1.85-1.51,3.36-3.36,3.36c-1.85,0-3.36-1.51-3.36-3.36v-3.36H20.22z"/>
		<path d="M20.22,23.58c-1.85,0-3.36-1.51-3.36-3.36c0-1.85,1.51-3.36,3.36-3.36h8.42c1.85,0,3.36,1.51,3.36,3.36
			c0,1.85-1.51,3.36-3.36,3.36H20.22z"/>
	</g>
</g>
</svg>
