<?xml version="1.0" encoding="utf-8"?>
<!-- Generator: Adobe Illustrator 23.0.4, SVG Export Plug-In . SVG Version: 6.00 Build 0)  -->
<svg version="1.1" id="レイヤー_1" xmlns="http://www.w3.org/2000/svg" xmlns:xlink="http://www.w3.org/1999/xlink" x="0px"
	 y="0px" viewBox="0 0 32 32" style="enable-background:new 0 0 32 32;" xml:space="preserve">
<style type="text/css">
	.st0{fill-rule:evenodd;clip-rule:evenodd;}
	.st1{clip-path:url(#SVGID_4_);}
	.st2{clip-path:url(#SVGID_6_);}
	.st3{clip-path:url(#SVGID_8_);}
</style>
<g>
	<defs>
		<rect id="SVGID_3_" y="0.98" width="32" height="30.05"/>
	</defs>
	<clipPath id="SVGID_2_">
		<use xlink:href="#SVGID_3_"  style="overflow:visible;"/>
	</clipPath>
	<path style="clip-path:url(#SVGID_2_);" d="M16.19,30.67c-0.09,0-0.16,0-0.23-0.01c-0.05,0-0.11,0.01-0.16,0.01
		c-1.86,0-3.04-0.84-4.2-1.65c-0.79-0.57-1.55-1.09-2.42-1.24c-0.43-0.07-0.86-0.11-1.27-0.11c-0.75,0-1.33,0.12-1.76,0.2
		c-0.26,0.05-0.49,0.1-0.66,0.1c-0.18,0-0.37-0.04-0.46-0.33c-0.07-0.25-0.13-0.49-0.18-0.73c-0.13-0.6-0.22-0.97-0.48-1.01
		c-2.94-0.46-3.78-1.08-3.97-1.52c-0.02-0.06-0.04-0.13-0.04-0.19c-0.01-0.17,0.11-0.32,0.28-0.34c4.52-0.75,6.55-5.36,6.63-5.56
		c0-0.01,0-0.01,0.01-0.02c0.28-0.56,0.33-1.05,0.16-1.44c-0.31-0.73-1.32-1.06-1.99-1.26c-0.16-0.05-0.32-0.1-0.44-0.15
		c-1.33-0.52-1.45-1.07-1.4-1.35c0.09-0.47,0.72-0.8,1.23-0.8c0.14,0,0.27,0.02,0.36,0.07c0.6,0.28,1.14,0.43,1.61,0.43
		c0.64,0,0.93-0.27,0.96-0.31c-0.02-0.31-0.03-0.63-0.05-0.95c-0.14-2.14-0.3-4.79,0.37-6.31c2.03-4.54,6.32-4.89,7.59-4.89
		c0.03,0,0.56-0.01,0.56-0.01h0.07c1.27,0,5.57,0.35,7.6,4.9c0.67,1.52,0.51,4.17,0.37,6.31l-0.01,0.1
		c-0.02,0.3-0.03,0.59-0.05,0.86c0.03,0.03,0.29,0.28,0.88,0.31c0.45-0.02,0.96-0.16,1.52-0.43c0.16-0.07,0.35-0.1,0.47-0.1
		c0.19,0,0.38,0.03,0.54,0.11h0.01c0.46,0.16,0.75,0.48,0.76,0.81c0.01,0.31-0.24,0.78-1.41,1.25c-0.12,0.04-0.28,0.1-0.44,0.15
		c-0.67,0.21-1.68,0.53-1.99,1.26c-0.17,0.4-0.12,0.89,0.16,1.44c0,0.01,0,0.01,0.01,0.02c0.09,0.19,2.11,4.82,6.63,5.56
		c0.17,0.03,0.29,0.18,0.28,0.34c0,0.06-0.02,0.13-0.04,0.19c-0.18,0.44-1.03,1.06-3.97,1.51c-0.23,0.03-0.33,0.35-0.48,1
		c-0.05,0.23-0.11,0.47-0.18,0.72c-0.06,0.21-0.19,0.31-0.42,0.31h-0.03c-0.16,0-0.37-0.03-0.66-0.09c-0.5-0.1-1.06-0.19-1.76-0.19
		c-0.42,0-0.84,0.03-1.27,0.11c-0.89,0.15-1.63,0.67-2.42,1.24C19.23,29.83,18.03,30.67,16.19,30.67"/>
</g>
</svg>
