<?xml version="1.0" encoding="utf-8"?>
<!-- Generator: Adobe Illustrator 23.0.4, SVG Export Plug-In . SVG Version: 6.00 Build 0)  -->
<svg version="1.1" id="レイヤー_1" xmlns="http://www.w3.org/2000/svg" xmlns:xlink="http://www.w3.org/1999/xlink" x="0px"
	 y="0px" viewBox="0 0 32 32" style="enable-background:new 0 0 32 32;" xml:space="preserve">
<style type="text/css">
	.st0{fill-rule:evenodd;clip-rule:evenodd;}
	.st1{clip-path:url(#SVGID_4_);}
	.st2{fill:#040000;}
	.st3{fill:#1D1D1B;}
</style>
<g>
	<path d="M0,19.21c0,1.08,0.49,2.05,1.27,2.7v-5.4C0.49,17.16,0,18.13,0,19.21 M2.61,15.8v6.82c0.32,0.09,0.65,0.14,0.99,0.14h0.35
		v-7.08c-0.12-0.01-0.23-0.02-0.35-0.02C3.26,15.66,2.93,15.71,2.61,15.8 M5.57,16.24c-0.09-0.06-0.18-0.11-0.28-0.16v6.68h1.34
		v-8.93C6.1,14.52,5.73,15.34,5.57,16.24 M7.98,12.57v10.19h1.34V11.91C8.84,12.07,8.39,12.3,7.98,12.57 M10.66,11.63v11.12H12
		V11.67c-0.28-0.04-0.56-0.06-0.85-0.06C10.99,11.61,10.82,11.62,10.66,11.63 M14.08,12.42c-0.44-0.26-0.91-0.46-1.41-0.6v10.94
		h2.01V11.61C14.47,11.86,14.27,12.13,14.08,12.42 M15.36,10.94v11.82h12.75v-0.02C30.79,22.57,32,20.9,32,18.87
		c0-2.15-1.62-3.88-3.81-3.88c-0.56,0-1.02,0.11-1.51,0.32c-0.35-3.41-3.24-6.07-6.8-6.07C18.15,9.24,16.56,9.88,15.36,10.94"/>
</g>
</svg>
