<?xml version="1.0" encoding="utf-8"?>
<!-- Generator: Adobe Illustrator 23.0.4, SVG Export Plug-In . SVG Version: 6.00 Build 0)  -->
<svg version="1.1" id="レイヤー_1" xmlns="http://www.w3.org/2000/svg" xmlns:xlink="http://www.w3.org/1999/xlink" x="0px"
	 y="0px" viewBox="0 0 32 32" style="enable-background:new 0 0 32 32;" xml:space="preserve">
<style type="text/css">
	.st0{fill-rule:evenodd;clip-rule:evenodd;}
	.st1{clip-path:url(#SVGID_4_);}
	.st2{clip-path:url(#SVGID_6_);}
	.st3{clip-path:url(#SVGID_8_);}
</style>
<path d="M16.06,0.11C7.29,0.11,0.17,7.23,0.17,16s7.11,15.89,15.89,15.89c8.77,0,15.89-7.11,15.89-15.89S24.84,0.11,16.06,0.11z
	 M23.34,23.05c-0.2,0.33-0.54,0.51-0.9,0.51c-0.18,0-0.37-0.05-0.54-0.15c-6.26-3.76-13.67-1.59-13.75-1.56
	c-0.55,0.17-1.13-0.14-1.3-0.7s0.14-1.13,0.69-1.3c0.34-0.1,8.36-2.48,15.43,1.77C23.47,21.92,23.63,22.56,23.34,23.05z
	 M25.31,18.65c-0.23,0.4-0.64,0.62-1.07,0.62c-0.21,0-0.42-0.05-0.61-0.16c-7.86-4.52-15.78-1.89-15.86-1.86
	c-0.64,0.22-1.35-0.12-1.57-0.77c-0.22-0.64,0.12-1.35,0.77-1.57c0.37-0.13,9.07-3.02,17.89,2.06
	C25.44,17.31,25.65,18.06,25.31,18.65z M26.19,14.41c-0.24,0-0.48-0.06-0.7-0.17c-9.06-4.76-18.37-1.91-18.46-1.88
	c-0.8,0.25-1.65-0.19-1.9-0.99c-0.25-0.8,0.19-1.65,0.99-1.9c0.43-0.14,10.62-3.25,20.78,2.09c0.74,0.39,1.03,1.31,0.64,2.05
	C27.26,14.12,26.74,14.41,26.19,14.41z"/>
</svg>
