<?xml version="1.0" encoding="utf-8"?>
<!-- Generator: Adobe Illustrator 23.0.4, SVG Export Plug-In . SVG Version: 6.00 Build 0)  -->
<svg version="1.1" id="レイヤー_1" xmlns="http://www.w3.org/2000/svg" xmlns:xlink="http://www.w3.org/1999/xlink" x="0px"
	 y="0px" viewBox="0 0 32 32" style="enable-background:new 0 0 32 32;" xml:space="preserve">
<style type="text/css">
	.st0{fill-rule:evenodd;clip-rule:evenodd;}
	.st1{clip-path:url(#SVGID_4_);}
	.st2{fill:#040000;}
	.st3{fill:#1D1D1B;}
</style>
<path d="M15.97,0.05c-8.3,0-15.1,6.46-15.75,14.67l8.47,3.53c0.72-0.49,1.58-0.78,2.52-0.78c0.08,0,0.17,0,0.25,0.01l3.77-5.51
	c0-0.03,0-0.05,0-0.08c0-3.32,2.67-6.01,5.96-6.01s5.96,2.7,5.96,6.01c0,3.32-2.67,6.02-5.96,6.02c-0.05,0-0.09,0-0.14,0l-5.37,3.87
	c0,0.07,0,0.14,0,0.21c0,2.49-2.01,4.51-4.47,4.51c-2.17,0-3.98-1.56-4.39-3.63l-6.06-2.53c1.88,6.69,7.97,11.6,15.21,11.6
	c8.73,0,15.8-7.14,15.8-15.95C31.78,7.19,24.7,0.05,15.97,0.05"/>
</svg>
