<?xml version="1.0" encoding="utf-8"?>
<!-- Generator: Adobe Illustrator 23.0.4, SVG Export Plug-In . SVG Version: 6.00 Build 0)  -->
<svg version="1.1" id="レイヤー_1" xmlns="http://www.w3.org/2000/svg" xmlns:xlink="http://www.w3.org/1999/xlink" x="0px"
	 y="0px" viewBox="0 0 32 32" style="enable-background:new 0 0 32 32;" xml:space="preserve">
<style type="text/css">
	.st0{fill-rule:evenodd;clip-rule:evenodd;}
	.st1{clip-path:url(#SVGID_4_);}
	.st2{fill:#040000;}
	.st3{fill:#1D1D1B;}
</style>
<path class="st2" d="M30.13,22.17c-2.21,0-4.32-0.35-6.3-1c-0.62-0.2-1.31-0.05-1.8,0.42l-3.88,3.88c-5-2.54-9.09-6.62-11.64-11.63
	l3.88-3.9c0.49-0.46,0.64-1.15,0.44-1.77c-0.65-1.98-1-4.1-1-6.3c0-0.97-0.8-1.77-1.77-1.77H1.87c-0.97,0-1.77,0.8-1.77,1.77
	c0,16.58,13.44,30.02,30.02,30.02c0.97,0,1.77-0.8,1.77-1.77v-6.18C31.89,22.97,31.09,22.17,30.13,22.17z M28.36,15.99h3.53
	C31.89,7.21,24.78,0.1,16,0.1v3.53C22.83,3.63,28.36,9.16,28.36,15.99z M21.3,15.99h3.53c0-4.87-3.95-8.83-8.83-8.83v3.53
	C18.93,10.69,21.3,13.06,21.3,15.99z"/>
</svg>
