<?xml version="1.0" encoding="utf-8"?>
<!-- Generator: Adobe Illustrator 23.0.4, SVG Export Plug-In . SVG Version: 6.00 Build 0)  -->
<svg version="1.1" id="レイヤー_1" xmlns="http://www.w3.org/2000/svg" xmlns:xlink="http://www.w3.org/1999/xlink" x="0px"
	 y="0px" viewBox="0 0 32 32" style="enable-background:new 0 0 32 32;" xml:space="preserve">
<style type="text/css">
	.st0{fill-rule:evenodd;clip-rule:evenodd;}
	.st1{clip-path:url(#SVGID_4_);}
	.st2{fill:#040000;}
	.st3{fill:#1D1D1B;}
</style>
<path class="st0" d="M22.11,0v0.03c0,0.49,0.14,7.53,7.53,7.97c0,6.55,0,0,0,5.44c-0.56,0.03-4.86-0.28-7.55-2.67L22.1,21.36
	c0.07,4.8-2.6,9.5-7.6,10.45c-1.4,0.27-2.66,0.3-4.78-0.17c-12.2-3.65-8.14-21.74,4.1-19.8c0,5.84,0,0,0,5.84
	c-5.06-0.74-6.75,3.46-5.41,6.48c1.22,2.74,6.26,3.34,8.02-0.53c0.2-0.76,0.3-1.62,0.3-2.59V0H22.11z"/>
</svg>
