<?xml version="1.0" encoding="utf-8"?>
<!-- Generator: Adobe Illustrator 23.0.4, SVG Export Plug-In . SVG Version: 6.00 Build 0)  -->
<svg version="1.1" id="レイヤー_1" xmlns="http://www.w3.org/2000/svg" xmlns:xlink="http://www.w3.org/1999/xlink" x="0px"
	 y="0px" viewBox="0 0 32 32" style="enable-background:new 0 0 32 32;" xml:space="preserve">
<style type="text/css">
	.st0{fill-rule:evenodd;clip-rule:evenodd;}
	.st1{clip-path:url(#SVGID_4_);}
	.st2{fill:#040000;}
	.st3{fill:#1D1D1B;}
</style>
<path d="M10.04,29.05c12.12,0,18.76-10.05,18.76-18.76c0-0.29,0-0.57-0.02-0.85c1.29-0.93,2.4-2.09,3.29-3.41
	c-1.2,0.53-2.48,0.88-3.79,1.04c1.38-0.82,2.41-2.12,2.9-3.65c-1.29,0.77-2.71,1.31-4.19,1.6c-2.5-2.65-6.67-2.78-9.33-0.29
	c-1.71,1.61-2.44,4.01-1.91,6.3c-5.3-0.27-10.24-2.77-13.59-6.89c-1.75,3.01-0.86,6.87,2.04,8.8c-1.05-0.03-2.08-0.31-2.99-0.83
	c0,0.03,0,0.06,0,0.08c0,3.14,2.21,5.84,5.29,6.46c-0.97,0.26-1.99,0.3-2.98,0.11c0.86,2.69,3.34,4.52,6.16,4.58
	c-2.33,1.83-5.22,2.83-8.19,2.83c-0.52,0-1.05-0.03-1.57-0.1C2.95,28.03,6.46,29.05,10.04,29.05"/>
</svg>
