<?xml version="1.0" encoding="utf-8"?>
<!-- Generator: Adobe Illustrator 23.0.4, SVG Export Plug-In . SVG Version: 6.00 Build 0)  -->
<svg version="1.1" id="レイヤー_1" xmlns="http://www.w3.org/2000/svg" xmlns:xlink="http://www.w3.org/1999/xlink" x="0px"
	 y="0px" viewBox="0 0 32 32" style="enable-background:new 0 0 32 32;" xml:space="preserve">
<style type="text/css">
	.st0{fill-rule:evenodd;clip-rule:evenodd;}
	.st1{clip-path:url(#SVGID_4_);}
	.st2{fill:#040000;}
	.st3{fill:#1D1D1B;}
</style>
<path d="M31.98,8.56c-0.14,3.11-2.32,7.38-6.53,12.79c-4.35,5.65-8.03,8.48-11.04,8.48c-1.87,0-3.44-1.72-4.73-5.16
	c-0.86-3.16-1.72-6.31-2.58-9.47c-0.96-3.44-1.98-5.16-3.08-5.16c-0.24,0-1.08,0.5-2.51,1.51L0,9.61c1.58-1.39,3.14-2.77,4.67-4.16
	c2.11-1.82,3.69-2.78,4.74-2.87c2.49-0.24,4.02,1.46,4.6,5.11c0.62,3.93,1.05,6.38,1.29,7.33c0.72,3.26,1.51,4.89,2.37,4.89
	c0.67,0,1.68-1.06,3.02-3.17c1.34-2.12,2.06-3.72,2.15-4.83c0.19-1.83-0.53-2.74-2.15-2.74c-0.77,0-1.56,0.18-2.37,0.52
	c1.57-5.15,4.58-7.65,9.01-7.51C30.62,2.26,32.17,4.4,31.98,8.56z"/>
</svg>
