<?xml version="1.0" encoding="utf-8"?>
<!-- Generator: Adobe Illustrator 23.0.4, SVG Export Plug-In . SVG Version: 6.00 Build 0)  -->
<svg version="1.1" id="レイヤー_1" xmlns="http://www.w3.org/2000/svg" xmlns:xlink="http://www.w3.org/1999/xlink" x="0px"
	 y="0px" viewBox="0 0 32 32" style="enable-background:new 0 0 32 32;" xml:space="preserve">
<style type="text/css">
	.st0{fill-rule:evenodd;clip-rule:evenodd;}
	.st1{clip-path:url(#SVGID_4_);}
	.st2{fill:#040000;}
	.st3{fill:#1D1D1B;}
</style>
<g>
	<g>
		<path d="M16,0.12C7.23,0.12,0.12,7.23,0.12,16S7.23,31.88,16,31.88S31.88,24.77,31.88,16C31.87,7.23,24.77,0.13,16,0.12z
			 M12.07,1.72C10.5,3.2,9.31,5.04,8.6,7.08C7.42,6.8,6.26,6.42,5.13,5.95C7.01,3.92,9.41,2.46,12.07,1.72z M4.41,6.79
			c1.24,0.56,2.52,1.01,3.84,1.36c-0.75,2.37-1.14,4.83-1.18,7.32v-0.02H1.22C1.33,12.29,2.44,9.26,4.41,6.79z M4.41,25.15
			c-1.96-2.47-3.08-5.5-3.19-8.65l5.85,0.01C7.1,19,7.5,21.48,8.25,23.85C6.93,24.18,5.65,24.61,4.41,25.15z M5.13,26.04v-0.04
			c1.12-0.47,2.28-0.85,3.46-1.14c0.7,2.06,1.9,3.92,3.48,5.42C9.41,29.54,7.01,28.07,5.13,26.04z M15.46,30.76
			c-2.4-0.31-4.5-2.63-5.83-6.09c1.92-0.39,3.87-0.59,5.83-0.62V30.76z M15.46,22.94c-2.08,0.03-4.15,0.25-6.19,0.67
			c-0.71-2.29-1.09-4.67-1.13-7.07v-0.02h7.32V22.94z M15.46,15.44H8.15c0.03-2.42,0.41-4.83,1.13-7.14
			c2.04,0.43,4.11,0.67,6.19,0.71V15.44z M15.46,7.95c-1.96-0.02-3.91-0.23-5.83-0.61c1.33-3.47,3.43-5.79,5.83-6.1V7.95z
			 M27.59,6.83c1.96,2.47,3.08,5.5,3.19,8.65h-5.85c-0.03-2.5-0.43-4.97-1.18-7.35C25.07,7.81,26.35,7.38,27.59,6.83z M26.86,5.96
			c-1.12,0.47-2.28,0.85-3.46,1.14c-0.71-2.04-1.9-3.89-3.47-5.38C22.59,2.46,24.99,3.93,26.86,5.96z M16.54,1.24
			c2.4,0.31,4.5,2.63,5.83,6.09c-1.92,0.39-3.87,0.59-5.83,0.62V1.24z M16.54,9.02c2.08-0.03,4.15-0.25,6.19-0.67
			c0.72,2.31,1.1,4.72,1.13,7.14h-7.32V9.02z M16.54,16.56h7.32c-0.03,2.42-0.41,4.83-1.13,7.14c-2.04-0.43-4.11-0.67-6.19-0.71
			V16.56z M16.54,30.76v-6.71c1.96,0.02,3.91,0.23,5.83,0.61C21.03,28.14,18.93,30.46,16.54,30.76z M19.93,30.28
			c1.57-1.48,2.77-3.33,3.48-5.37c1.18,0.29,2.34,0.67,3.46,1.14C24.99,28.07,22.59,29.54,19.93,30.28z M27.59,25.21
			c-1.24-0.56-2.52-1.01-3.84-1.36c0.75-2.37,1.14-4.83,1.18-7.32v0.02h5.85C30.67,19.71,29.56,22.74,27.59,25.21z"/>
	</g>
</g>
</svg>
