<?xml version="1.0" encoding="utf-8"?>
<!-- Generator: Adobe Illustrator 23.0.4, SVG Export Plug-In . SVG Version: 6.00 Build 0)  -->
<svg version="1.1" id="レイヤー_1" xmlns="http://www.w3.org/2000/svg" xmlns:xlink="http://www.w3.org/1999/xlink" x="0px"
	 y="0px" viewBox="0 0 32 32" style="enable-background:new 0 0 32 32;" xml:space="preserve">
<style type="text/css">
	.st0{fill-rule:evenodd;clip-rule:evenodd;}
	.st1{clip-path:url(#SVGID_4_);}
	.st2{clip-path:url(#SVGID_6_);}
	.st3{clip-path:url(#SVGID_8_);}
</style>
<g>
	<path d="M22.23,11.28c-2.97,0.16-5.55,1.06-7.65,3.09c-2.12,2.06-3.09,4.57-2.82,7.7c-1.16-0.14-2.22-0.3-3.28-0.39
		c-0.37-0.03-0.8,0.01-1.11,0.19c-1.03,0.58-2.02,1.24-3.2,1.97c0.22-0.97,0.35-1.83,0.6-2.65c0.18-0.6,0.1-0.94-0.46-1.33
		c-3.57-2.52-5.07-6.29-3.94-10.16c1.04-3.59,3.6-5.76,7.07-6.9c4.74-1.55,10.07,0.03,12.95,3.79C21.43,7.95,22.06,9.47,22.23,11.28
		L22.23,11.28z M8.56,10.07C8.59,9.36,7.97,8.72,7.24,8.7C6.5,8.68,5.88,9.25,5.86,9.98c-0.02,0.75,0.55,1.34,1.3,1.36
		C7.91,11.37,8.53,10.8,8.56,10.07L8.56,10.07z M15.69,8.7c-0.73,0.01-1.35,0.64-1.34,1.35c0.01,0.74,0.62,1.32,1.37,1.31
		c0.76-0.01,1.33-0.59,1.32-1.35C17.04,9.27,16.44,8.68,15.69,8.7z"/>
	<path d="M28.91,29.8c-0.94-0.42-1.8-1.05-2.72-1.14c-0.92-0.1-1.88,0.43-2.83,0.53c-2.92,0.3-5.53-0.51-7.68-2.51
		c-4.1-3.79-3.51-9.6,1.23-12.71c4.21-2.76,10.39-1.84,13.36,1.99c2.59,3.34,2.29,7.78-0.88,10.59c-0.92,0.81-1.25,1.48-0.66,2.55
		C28.83,29.3,28.84,29.55,28.91,29.8L28.91,29.8z M18.2,19.43c0.6,0,1.09-0.47,1.11-1.06c0.02-0.63-0.48-1.15-1.11-1.15
		c-0.62,0-1.14,0.53-1.12,1.15C17.11,18.95,17.6,19.43,18.2,19.43L18.2,19.43z M25.1,17.22c-0.58,0-1.07,0.47-1.1,1.06
		c-0.03,0.63,0.46,1.14,1.08,1.14c0.6,0,1.08-0.45,1.1-1.05C26.21,17.74,25.72,17.22,25.1,17.22z"/>
</g>
</svg>
