<?xml version="1.0" encoding="utf-8"?>
<!-- Generator: Adobe Illustrator 23.0.4, SVG Export Plug-In . SVG Version: 6.00 Build 0)  -->
<svg version="1.1" id="レイヤー_1" xmlns="http://www.w3.org/2000/svg" xmlns:xlink="http://www.w3.org/1999/xlink" x="0px"
	 y="0px" viewBox="0 0 32 32" style="enable-background:new 0 0 32 32;" xml:space="preserve">
<style type="text/css">
	.st0{fill-rule:evenodd;clip-rule:evenodd;}
	.st1{clip-path:url(#SVGID_4_);}
	.st2{clip-path:url(#SVGID_6_);}
	.st3{clip-path:url(#SVGID_8_);}
</style>
<path d="M13.45,27.03c-5.28,0.52-9.84-1.87-10.19-5.34c-0.34-3.47,3.66-6.7,8.95-7.22c5.28-0.52,9.84,1.87,10.19,5.33
	C22.74,23.28,18.73,26.51,13.45,27.03 M24.02,15.52c-0.45-0.13-0.76-0.23-0.52-0.82c0.51-1.28,0.56-2.39,0.01-3.18
	c-1.04-1.48-3.87-1.4-7.12-0.04c0,0-1.02,0.45-0.76-0.36c0.5-1.61,0.42-2.95-0.35-3.73C13.51,5.63,8.82,7.46,4.8,11.48
	c-3.01,3.01-4.76,6.2-4.76,8.96c0,5.28,6.77,8.49,13.39,8.49c8.68,0,14.45-5.04,14.45-9.05C27.88,17.46,25.85,16.09,24.02,15.52"/>
<path d="M29.78,5.86c-2.1-2.32-5.19-3.21-8.04-2.6h0c-0.66,0.14-1.08,0.79-0.94,1.45c0.14,0.66,0.79,1.08,1.45,0.94
	c2.03-0.43,4.23,0.2,5.72,1.85c1.44,1.59,1.92,3.83,1.25,5.88l0,0c-0.21,0.64,0.14,1.33,0.78,1.54c0,0,0,0,0,0
	c0.64,0.21,1.33-0.14,1.54-0.79l0-0.01C32.44,11.35,31.88,8.18,29.78,5.86"/>
<path d="M26.56,8.77c-1.02-1.13-2.53-1.56-3.92-1.27c-0.57,0.1-0.95,0.65-0.85,1.22s0.65,0.95,1.22,0.85c0.02,0,0.04-0.01,0.06-0.01
	v0c0.7-0.15,1.43,0.09,1.92,0.62c0.48,0.53,0.64,1.29,0.42,1.97h0c-0.18,0.55,0.12,1.15,0.68,1.32c0.55,0.18,1.15-0.13,1.32-0.68
	C27.86,11.44,27.58,9.9,26.56,8.77"/>
<path d="M13.74,20.75c-0.19,0.32-0.59,0.47-0.91,0.34c-0.31-0.13-0.41-0.48-0.23-0.79c0.18-0.31,0.58-0.46,0.89-0.34
	C13.8,20.08,13.92,20.43,13.74,20.75 M12.06,22.91c-0.51,0.82-1.61,1.17-2.43,0.8c-0.81-0.37-1.05-1.32-0.54-2.11
	c0.5-0.79,1.56-1.14,2.38-0.8C12.3,21.15,12.56,22.09,12.06,22.91 M13.98,17.14c-2.51-0.65-5.36,0.6-6.45,2.81
	c-1.11,2.26-0.04,4.77,2.5,5.59c2.63,0.85,5.73-0.45,6.81-2.89C17.91,20.27,16.58,17.82,13.98,17.14"/>
</svg>
