<?xml version="1.0" encoding="utf-8"?>
<!-- Generator: Adobe Illustrator 23.0.4, SVG Export Plug-In . SVG Version: 6.00 Build 0)  -->
<svg version="1.1" id="レイヤー_1" xmlns="http://www.w3.org/2000/svg" xmlns:xlink="http://www.w3.org/1999/xlink" x="0px"
	 y="0px" viewBox="0 0 32 32" style="enable-background:new 0 0 32 32;" xml:space="preserve">
<style type="text/css">
	.st0{fill-rule:evenodd;clip-rule:evenodd;}
	.st1{clip-path:url(#SVGID_4_);}
	.st2{fill:#040000;}
	.st3{fill:#1D1D1B;}
</style>
<g id="WA_Logo">
	<g>
		<path class="st0" d="M27.01,4.92C24.09,2,20.2,0.39,16.06,0.38c-8.53,0-15.47,6.94-15.48,15.47c0,2.73,0.71,5.39,2.07,7.74
			l-2.2,8.02l8.2-2.15c2.26,1.23,4.81,1.88,7.4,1.88h0.01c0,0,0,0,0,0c8.53,0,15.47-6.94,15.48-15.48
			C31.54,11.74,29.93,7.85,27.01,4.92z M16.07,28.73L16.07,28.73c-2.31,0-4.58-0.62-6.55-1.79l-0.47-0.28l-4.87,1.28l1.3-4.75
			l-0.31-0.49c-1.29-2.05-1.97-4.41-1.97-6.85C3.2,8.77,8.98,3,16.07,3c3.44,0,6.67,1.34,9.09,3.77c2.43,2.43,3.77,5.66,3.76,9.1
			C28.92,22.96,23.15,28.73,16.07,28.73z M23.12,19.1c-0.39-0.19-2.29-1.13-2.64-1.26c-0.35-0.13-0.61-0.19-0.87,0.19
			c-0.26,0.39-1,1.26-1.22,1.52c-0.23,0.26-0.45,0.29-0.84,0.1c-0.39-0.19-1.63-0.6-3.11-1.92c-1.15-1.03-1.93-2.29-2.15-2.68
			c-0.23-0.39-0.02-0.6,0.17-0.79c0.17-0.17,0.39-0.45,0.58-0.68c0.19-0.23,0.26-0.39,0.39-0.65c0.13-0.26,0.06-0.48-0.03-0.68
			s-0.87-2.1-1.19-2.87c-0.31-0.75-0.63-0.65-0.87-0.66c-0.23-0.01-0.48-0.01-0.74-0.01S9.91,8.81,9.55,9.2
			C9.2,9.58,8.2,10.52,8.2,12.42c0,1.9,1.39,3.74,1.58,4c0.19,0.26,2.73,4.16,6.61,5.84c0.92,0.4,1.64,0.64,2.2,0.81
			c0.93,0.29,1.77,0.25,2.44,0.15c0.74-0.11,2.29-0.94,2.61-1.84c0.32-0.9,0.32-1.68,0.23-1.84C23.76,19.39,23.51,19.29,23.12,19.1z
			"/>
	</g>
</g>
</svg>
