<?xml version="1.0" encoding="utf-8"?>
<!-- Generator: Adobe Illustrator 23.0.4, SVG Export Plug-In . SVG Version: 6.00 Build 0)  -->
<svg version="1.1" id="レイヤー_1" xmlns="http://www.w3.org/2000/svg" xmlns:xlink="http://www.w3.org/1999/xlink" x="0px"
	 y="0px" viewBox="0 0 32 32" style="enable-background:new 0 0 32 32;" xml:space="preserve">
<style type="text/css">
	.st0{fill-rule:evenodd;clip-rule:evenodd;}
	.st1{clip-path:url(#SVGID_4_);}
	.st2{clip-path:url(#SVGID_6_);}
	.st3{clip-path:url(#SVGID_8_);}
</style>
<path d="M16,0C7.18,0,0,7.18,0,16c0,8.82,7.18,16,16,16c8.82,0,16-7.18,16-16C32,7.18,24.82,0,16,0z M1.61,16
	c0-2.09,0.45-4.07,1.25-5.85l6.86,18.8C4.92,26.61,1.61,21.69,1.61,16z M16,30.39c-1.41,0-2.77-0.21-4.06-0.59l4.32-12.54
	l4.42,12.11c0.03,0.07,0.06,0.14,0.1,0.2C19.28,30.1,17.67,30.39,16,30.39z M17.98,9.25c0.87-0.05,1.65-0.14,1.65-0.14
	c0.78-0.09,0.68-1.23-0.09-1.19c0,0-2.33,0.18-3.83,0.18c-1.41,0-3.79-0.18-3.79-0.18c-0.78-0.05-0.87,1.14-0.09,1.19
	c0,0,0.73,0.09,1.51,0.14l2.24,6.14l-3.15,9.44L7.19,9.25c0.87-0.05,1.65-0.14,1.65-0.14c0.77-0.09,0.68-1.23-0.09-1.19
	c0,0-2.33,0.18-3.83,0.18c-0.27,0-0.59-0.01-0.93-0.02C6.55,4.19,10.97,1.61,16,1.61c3.74,0,7.15,1.43,9.71,3.78
	c-0.06,0-0.12-0.01-0.19-0.01c-1.41,0-2.42,1.23-2.42,2.55c0,1.19,0.68,2.19,1.41,3.37c0.55,0.96,1.19,2.19,1.19,3.97
	c0,1.23-0.47,2.66-1.09,4.65l-1.44,4.79L17.98,9.25z M28.62,9.1c1.12,2.05,1.76,4.4,1.76,6.9c0,5.31-2.88,9.94-7.15,12.43l4.39-12.7
	c0.82-2.05,1.09-3.69,1.09-5.15C28.72,10.05,28.68,9.56,28.62,9.1z"/>
</svg>
