<?xml version="1.0" encoding="utf-8"?>
<!-- Generator: Adobe Illustrator 23.0.4, SVG Export Plug-In . SVG Version: 6.00 Build 0)  -->
<svg version="1.1" id="レイヤー_1" xmlns="http://www.w3.org/2000/svg" xmlns:xlink="http://www.w3.org/1999/xlink" x="0px"
	 y="0px" viewBox="0 0 32 32" style="enable-background:new 0 0 32 32;" xml:space="preserve">
<style type="text/css">
	.st0{fill-rule:evenodd;clip-rule:evenodd;}
	.st1{clip-path:url(#SVGID_4_);}
	.st2{clip-path:url(#SVGID_6_);}
	.st3{clip-path:url(#SVGID_8_);}
</style>
<g>
	<path d="M6.99,23.85c0.04-0.29,0.08-0.59,0.12-0.93c0.72-0.1,1.45-0.16,2.16-0.3c1.12-0.22,1.3-0.48,1.3-1.62
		c0-0.44-0.05-0.9,0.01-1.33c0.19-1.44-0.27-2.61-1.22-3.7C7.91,14.3,6.5,12.6,5.18,10.84C4.21,9.55,2.99,8.99,1.43,8.95
		C0.97,8.94,0.52,8.83,0,8.76c0.05-0.37,0.1-0.7,0.15-1.05c4.03,0,8.05,0,12.1,0c-0.06,0.33-0.11,0.63-0.18,0.98
		c-1.21,0.1-2.4,0.2-3.85,0.32c1.87,2.48,3.63,4.82,5.45,7.22c1.77-1.66,3.83-2.92,5.44-4.97c-0.96-0.15-1.76-0.29-2.56-0.4
		c-0.91-0.12-0.95-0.15-0.89-1.16c3.39,0,6.79,0,10.24,0c-0.27,0.61-0.51,1.15-1.31,1.2c-1.88,0.13-3.41,1.04-4.79,2.24
		c-1.41,1.23-2.82,2.44-4.24,3.66c-0.57,0.5-0.82,1.11-0.78,1.89c0.05,1.04,0.05,2.09,0.03,3.13c-0.01,0.47,0.12,0.67,0.63,0.68
		c0.97,0.02,1.94,0.12,3,0.2c-0.03,0.4-0.05,0.74-0.08,1.15C14.56,23.85,10.79,23.85,6.99,23.85z"/>
	<path d="M24.3,19.67c1.07-3.5,2.13-6.94,3.21-10.46c1.53,0.47,2.98,0.91,4.49,1.38c-0.8,1.36-1.57,2.65-2.33,3.94
		c-1.05,1.78-2.1,3.56-3.13,5.35c-0.17,0.29-0.33,0.42-0.68,0.3C25.36,19.99,24.85,19.84,24.3,19.67z"/>
	<path d="M25.64,22.25c-0.01,0.09,0,0.12-0.01,0.14c-0.29,0.64-0.59,1.28-0.88,1.91c-0.85-0.22-1.69-0.43-2.61-0.66
		c0.33-0.77,0.63-1.47,0.95-2.2C23.95,21.72,24.79,21.98,25.64,22.25z"/>
</g>
</svg>
