<?xml version="1.0" encoding="utf-8"?>
<!-- Generator: Adobe Illustrator 23.0.4, SVG Export Plug-In . SVG Version: 6.00 Build 0)  -->
<svg version="1.1" id="レイヤー_1" xmlns="http://www.w3.org/2000/svg" xmlns:xlink="http://www.w3.org/1999/xlink" x="0px"
	 y="0px" viewBox="0 0 32 32" style="enable-background:new 0 0 32 32;" xml:space="preserve">
<style type="text/css">
	.st0{fill-rule:evenodd;clip-rule:evenodd;}
	.st1{clip-path:url(#SVGID_4_);}
	.st2{clip-path:url(#SVGID_6_);}
	.st3{clip-path:url(#SVGID_8_);}
</style>
<path d="M31.33,8.25c-0.37-1.39-1.45-2.48-2.83-2.85C26.01,4.73,16,4.73,16,4.73S5.99,4.73,3.5,5.4C2.12,5.77,1.04,6.86,0.67,8.25
	C0,10.76,0,16,0,16s0,5.24,0.67,7.75c0.37,1.39,1.45,2.48,2.83,2.85c2.5,0.67,12.5,0.67,12.5,0.67s10.01,0,12.5-0.67
	c1.38-0.37,2.46-1.46,2.83-2.85C32,21.24,32,16,32,16S32,10.76,31.33,8.25z M12.73,20.76v-9.52L21.09,16L12.73,20.76z"/>
</svg>
