<?xml version="1.0" standalone="no"?>
<!DOCTYPE svg PUBLIC "-//W3C//DTD SVG 1.1//EN" "http://www.w3.org/Graphics/SVG/1.1/DTD/svg11.dtd" >
<svg xmlns="http://www.w3.org/2000/svg">
<metadata>Generated by IcoMoon</metadata>
<defs>
<font id="icomoon" horiz-adv-x="1024">
<font-face units-per-em="1024" ascent="960" descent="-64" />
<missing-glyph horiz-adv-x="1024" />
<glyph unicode="&#x20;" horiz-adv-x="512" d="" />
<glyph unicode="&#xe900;" glyph-name="weibo" d="M430.4 95.040c-168.96-16.64-314.88 59.84-326.080 170.88-10.88 111.040 117.12 214.4 286.4 231.040 168.96 16.64 314.88-59.84 326.080-170.56 10.88-111.36-117.44-214.72-286.4-231.36zM768.64 463.36c-14.4 4.16-24.32 7.36-16.64 26.24 16.32 40.96 17.92 76.48 0.32 101.76-33.28 47.36-123.84 44.8-227.84 1.28 0 0-32.64-14.4-24.32 11.52 16 51.52 13.44 94.4-11.2 119.36-56.64 56.32-206.72-2.24-335.36-130.88-96.32-96.32-152.32-198.4-152.32-286.72 0-168.96 216.64-271.68 428.48-271.68 277.76 0 462.4 161.28 462.4 289.6 0 77.44-64.96 121.28-123.52 139.52zM952.96 772.48c-67.2 74.24-166.080 102.72-257.28 83.2v0c-21.12-4.48-34.56-25.28-30.080-46.4s25.28-34.56 46.4-30.080c64.96 13.76 135.36-6.4 183.040-59.2 46.080-50.88 61.44-122.56 40-188.16v0c-6.72-20.48 4.48-42.56 24.96-49.28 0 0 0 0 0 0 20.48-6.72 42.56 4.48 49.28 25.28v0.32c28.8 88.64 10.88 190.080-56.32 264.32zM849.92 679.36c-32.64 36.16-80.96 49.92-125.44 40.64-18.24-3.2-30.4-20.8-27.2-39.040s20.8-30.4 39.040-27.2c0.64 0 1.28 0.32 1.92 0.32v0c22.4 4.8 45.76-2.88 61.44-19.84 15.36-16.96 20.48-41.28 13.44-63.040v0c-5.76-17.6 3.84-36.8 21.76-42.24 17.6-5.76 36.8 4.16 42.24 21.76 14.4 43.2 5.44 92.48-27.2 128.64zM439.68 296c-6.080-10.24-18.88-15.040-29.12-10.88-9.92 4.16-13.12 15.36-7.36 25.28s18.56 14.72 28.48 10.88c9.92-3.84 13.76-15.040 8-25.28zM385.92 226.88c-16.32-26.24-51.52-37.44-77.76-25.6-25.92 11.84-33.6 42.24-17.28 67.52 16 25.28 49.92 36.48 76.16 25.6 26.56-11.2 34.88-41.28 18.88-67.52zM447.36 411.52c-80.32 20.8-171.52-19.2-206.4-89.92-35.52-72.32-1.28-152.64 80-178.88 84.16-27.2 183.36 14.4 217.92 92.48 34.24 76.16-8.32 154.56-91.52 176.32z" />
<glyph unicode="&#xe901;" glyph-name="website" d="M512 956.16c-280.64 0-508.16-227.52-508.16-508.16s227.52-508.16 508.16-508.16 508.16 227.52 508.16 508.16c-0.32 280.64-227.52 507.84-508.16 508.16zM386.24 904.96c-50.24-47.36-88.32-106.24-111.040-171.52-37.76 8.96-74.88 21.12-111.040 36.16 60.16 64.96 136.96 111.68 222.080 135.36zM141.12 742.72c39.68-17.92 80.64-32.32 122.88-43.52-24-75.84-36.48-154.56-37.76-234.24v0.64h-187.2c3.52 101.12 39.040 198.080 102.080 277.12zM141.12 155.2c-62.72 79.040-98.56 176-102.080 276.8l187.2-0.32c0.96-79.68 13.76-159.040 37.76-234.88-42.24-10.56-83.2-24.32-122.88-41.6zM164.16 126.72v1.28c35.84 15.040 72.96 27.2 110.72 36.48 22.4-65.92 60.8-125.44 111.36-173.44-85.12 23.68-161.92 70.72-222.080 135.68zM494.72-24.32c-76.8 9.92-144 84.16-186.56 194.88 61.44 12.48 123.84 18.88 186.56 19.84v-214.72zM494.72 225.92c-66.56-0.96-132.8-8-198.080-21.44-22.72 73.28-34.88 149.44-36.16 226.24v0.64h234.24v-205.44zM494.72 465.92h-233.92c0.96 77.44 13.12 154.56 36.16 228.48 65.28-13.76 131.52-21.44 198.080-22.72v-205.76zM494.72 705.6c-62.72 0.64-125.12 7.36-186.56 19.52 42.56 111.040 109.76 185.28 186.56 195.2v-214.72zM882.88 741.44c62.72-79.040 98.56-176 102.080-276.8h-187.2c-0.96 80-13.76 159.040-37.76 235.2 42.24 10.24 83.2 24 122.88 41.6zM859.52 769.28c-35.84-15.040-72.96-27.2-110.72-36.48-22.72 65.28-60.8 124.48-111.040 172.16 85.12-23.68 161.92-70.72 221.76-135.68zM529.28 920.32c76.8-9.92 144-84.16 186.56-194.88-61.44-12.48-123.84-18.88-186.56-19.84v214.72zM529.28 671.36c66.56 0.96 132.8 8 198.080 21.44 23.040-73.92 35.2-151.040 36.16-228.48h-234.24v207.040zM529.28 430.080h234.24c-0.96-77.44-13.12-154.56-36.16-228.48-65.28 13.76-131.52 21.44-198.080 22.72v205.76zM529.28-24.32v214.72c62.72-0.64 125.12-7.36 186.56-19.52-42.88-111.36-110.080-185.6-186.56-195.2zM637.76-8.96c50.24 47.36 88.64 106.56 111.36 171.84 37.76-9.28 74.88-21.44 110.72-36.48-60.16-64.64-136.96-111.68-222.080-135.36zM882.88 153.28c-39.68 17.92-80.64 32.32-122.88 43.52 24 75.84 36.48 154.56 37.76 234.24v-0.64h187.2c-3.52-101.12-39.040-198.080-102.080-277.12z" />
<glyph unicode="&#xe902;" glyph-name="vimeo" d="M1023.36 686.080c-4.48-99.52-74.24-236.16-208.96-409.28-139.2-180.8-256.96-271.36-353.28-271.36-59.84 0-110.080 55.040-151.36 165.12-27.52 101.12-55.040 201.92-82.56 303.040-30.72 110.080-63.36 165.12-98.56 165.12-7.68 0-34.56-16-80.32-48.32l-48.32 62.080c50.56 44.48 100.48 88.64 149.44 133.12 67.52 58.24 118.080 88.96 151.68 91.84 79.68 7.68 128.64-46.72 147.2-163.52 19.84-125.76 33.6-204.16 41.28-234.56 23.040-104.32 48.32-156.48 75.84-156.48 21.44 0 53.76 33.92 96.64 101.44 42.88 67.84 65.92 119.040 68.8 154.56 6.080 58.56-16.96 87.68-68.8 87.68-24.64 0-49.92-5.76-75.84-16.64 50.24 164.8 146.56 244.8 288.32 240.32 105.28-2.56 154.88-71.040 148.8-204.16z" />
<glyph unicode="&#xe903;" glyph-name="pixiv" d="M884.8 762.24c-79.36 69.44-190.4 109.44-319.36 109.44-336.64 0-565.44-259.84-565.44-259.84l64.32-102.4c0 0 35.52-2.88 16.64 57.28 16.32 30.72 48.32 72.32 110.72 120.32v-681.92c-26.88-7.68-62.4-21.76-38.080-46.080h185.28c24.32 24.32-14.080 39.36-37.44 46.080v160.96c0 0 127.040-49.92 264-49.92 120.32 0 229.76 35.84 311.040 100.48 81.28 64.32 133.76 160.32 133.44 270.080 0.32 107.52-45.76 206.4-125.12 275.52zM553.92 179.84c-105.28 0-193.92 20.48-252.48 49.28v511.36c64.32 45.76 168.32 73.92 252.48 73.6 102.080 0 182.4-38.72 236.8-97.28 54.080-58.88 83.84-137.28 84.16-228.48-0.32-88.64-32-161.92-88.32-217.92-56.32-55.68-138.24-90.56-232.64-90.56zM-188.8 1140.8h1420.16v-1420.16h-1420.16v1420.16zM-13.76 885.44h1037.76v-940.16h-1037.76v940.16z" />
<glyph unicode="&#xe904;" glyph-name="kakaotalk" d="M403.84 563.84l-29.76-83.84h59.2zM512 920.32v0c-282.88 0-512-180.8-512-403.84 0-144 95.68-270.72 240-342.080-8-27.2-50.24-174.080-52.16-185.6 0 0-0.96-8.64 4.48-11.84 5.76-3.2 12.16-0.64 12.16-0.64 16 2.24 186.88 122.24 216.32 143.040 29.44-4.16 59.84-6.4 90.88-6.4 282.88 0 512 180.8 512 403.84 0.32 223.040-228.8 403.52-511.68 403.52zM258.56 404.16c0-15.68-13.12-28.16-29.44-28.16s-29.44 12.8-29.44 28.16v175.36h-46.4c-16 0-29.12 13.12-29.12 28.8 0 16 13.12 28.8 29.12 28.8h151.36c16 0 29.12-13.12 29.12-28.8 0-16-13.12-28.8-29.12-28.8h-46.080v-175.36zM506.56 380.16c-5.76-2.56-12.16-4.16-18.88-4.16v0c-12.16 0-21.76 5.12-24.64 13.12l-14.72 38.4h-89.92l-14.72-38.4c-2.88-8-12.16-13.12-24.64-13.12-6.4 0-12.8 1.28-18.88 4.16-7.68 3.84-15.36 14.4-6.4 42.24l70.72 185.92c5.12 14.080 20.16 28.8 39.36 29.12 19.2-0.32 34.56-15.040 39.36-29.12l70.72-185.92c8.64-28.16 0.96-38.4-7.36-42.24zM656 380.16h-94.72c-15.68 0-28.16 12.16-28.16 27.2v200.64c0 16.32 13.44 29.44 30.080 29.44s30.080-13.12 30.080-29.44v-173.44h62.72c15.68 0 28.16-12.16 28.16-27.2s-12.48-27.2-28.16-27.2zM887.36 402.56c-0.96-7.68-5.12-14.72-11.52-19.52-5.12-3.84-11.2-6.080-17.92-6.080-9.28 0-17.92 4.16-23.68 11.84l-69.12 91.84-10.24-10.24v-64.32c0-16.32-13.12-29.44-29.44-29.44v0c-16.32 0-29.44 13.12-29.44 29.44v201.92c0 16.32 13.12 29.44 29.44 29.44s29.44-13.12 29.44-29.44v-63.36l82.56 82.56c4.16 4.16 9.92 6.72 16.32 6.72 7.36 0 14.72-3.2 20.48-8.64 5.12-5.12 8.32-11.84 8.64-18.88s-1.92-13.44-6.4-17.92l-67.2-67.2 72.64-96.32c4.48-7.040 6.4-14.72 5.44-22.4z" />
<glyph unicode="&#xe905;" glyph-name="wechat" d="M711.36 599.040c-95.040-5.12-177.6-33.92-244.8-98.88-67.84-65.92-98.88-146.24-90.24-246.4-37.12 4.48-71.040 9.6-104.96 12.48-11.84 0.96-25.6-0.32-35.52-6.080-32.96-18.56-64.64-39.68-102.4-63.040 7.040 31.040 11.2 58.56 19.2 84.8 5.76 19.2 3.2 30.080-14.72 42.56-114.24 80.64-162.24 201.28-126.080 325.12 33.28 114.88 115.2 184.32 226.24 220.8 151.68 49.6 322.24-0.96 414.4-121.28 33.28-43.52 53.44-92.16 58.88-150.080v0zM273.92 637.76c0.96 22.72-18.88 43.2-42.24 43.84-23.68 0.64-43.52-17.6-44.16-40.96-0.64-24 17.6-42.88 41.6-43.52 24-0.96 43.84 17.28 44.8 40.64v0zM502.080 681.6c-23.36-0.32-43.2-20.48-42.88-43.2 0.32-23.68 19.84-42.24 43.84-41.92 24.32 0.32 42.56 18.88 42.24 43.2 0 23.68-19.2 42.56-43.2 41.92zM925.12 6.4c-30.080 13.44-57.6 33.6-87.040 36.48-29.44 3.2-60.16-13.76-90.56-16.96-93.44-9.6-176.96 16.32-245.76 80.32-131.2 121.28-112.32 307.2 39.36 406.72 134.72 88.32 332.48 58.88 427.52-63.68 82.88-106.88 73.28-248.96-28.16-338.88-29.44-25.92-40-47.36-21.12-81.6 3.2-6.4 3.52-14.4 5.76-22.4v0zM582.4 338.24c19.2 0 34.88 15.040 35.52 33.92 0.64 20.16-15.36 36.8-35.52 36.8-19.84 0-36.48-16.96-35.84-36.8 0.96-18.56 16.64-33.92 35.84-33.92v0zM803.2 408.96c-18.56 0-34.24-15.040-35.2-33.92-0.96-20.16 14.72-36.48 34.56-36.48 19.2 0 34.56 14.4 35.2 33.6 0.96 20.16-14.72 36.8-34.56 36.8z" />
<glyph unicode="&#xe906;" glyph-name="whatsapp" d="M864.32 802.56c-93.44 93.44-217.92 144.96-350.4 145.28-272.96 0-495.040-222.080-495.36-495.040 0-87.36 22.72-172.48 66.24-247.68l-70.4-256.64 262.4 68.8c72.32-39.36 153.92-60.16 236.8-60.16h0.32c0 0 0 0 0 0 272.96 0 495.040 222.080 495.36 495.36 0 131.84-51.52 256.32-144.96 350.080zM514.24 40.64v0c-73.92 0-146.56 19.84-209.6 57.28l-15.040 8.96-155.84-40.96 41.6 152-9.92 15.68c-41.28 65.6-63.040 141.12-63.040 219.2 0 226.56 184.96 411.2 411.84 411.2 110.080 0 213.44-42.88 290.88-120.64 77.76-77.76 120.64-181.12 120.32-291.2 0-226.88-184.64-411.52-411.2-411.52zM739.84 348.8c-12.48 6.080-73.28 36.16-84.48 40.32s-19.52 6.080-27.84-6.080c-8.32-12.48-32-40.32-39.040-48.64-7.36-8.32-14.4-9.28-26.88-3.2s-52.16 19.2-99.52 61.44c-36.8 32.96-61.76 73.28-68.8 85.76-7.36 12.48-0.64 19.2 5.44 25.28 5.44 5.44 12.48 14.4 18.56 21.76s8.32 12.48 12.48 20.8c4.16 8.32 1.92 15.36-0.96 21.76s-27.84 67.2-38.080 91.84c-9.92 24-20.16 20.8-27.84 21.12-7.36 0.32-15.36 0.32-23.68 0.32s-22.080-3.2-33.6-15.68c-11.2-12.16-43.2-42.24-43.2-103.040s44.48-119.68 50.56-128c6.080-8.32 87.36-133.12 211.52-186.88 29.44-12.8 52.48-20.48 70.4-25.92 29.76-9.28 56.64-8 78.080-4.8 23.68 3.52 73.28 30.080 83.52 58.88s10.24 53.76 7.36 58.88c-3.52 4.8-11.52 8-24 14.080z" />
<glyph unicode="&#xe907;" glyph-name="snapchat" d="M518.080-21.44c-2.88 0-5.12 0-7.36 0.32-1.6 0-3.52-0.32-5.12-0.32-59.52 0-97.28 26.88-134.4 52.8-25.28 18.24-49.6 34.88-77.44 39.68-13.76 2.24-27.52 3.52-40.64 3.52-24 0-42.56-3.84-56.32-6.4-8.32-1.6-15.68-3.2-21.12-3.2-5.76 0-11.84 1.28-14.72 10.56-2.24 8-4.16 15.68-5.76 23.36-4.16 19.2-7.040 31.040-15.36 32.32-94.080 14.72-120.96 34.56-127.040 48.64-0.64 1.92-1.28 4.16-1.28 6.080-0.32 5.44 3.52 10.24 8.96 10.88 144.64 24 209.6 171.52 212.16 177.92 0 0.32 0 0.32 0.32 0.64 8.96 17.92 10.56 33.6 5.12 46.080-9.92 23.36-42.24 33.92-63.68 40.32-5.12 1.6-10.24 3.2-14.080 4.8-42.56 16.64-46.4 34.24-44.8 43.2 2.88 15.040 23.040 25.6 39.36 25.6 4.48 0 8.64-0.64 11.52-2.24 19.2-8.96 36.48-13.76 51.52-13.76 20.48 0 29.76 8.64 30.72 9.92-0.64 9.92-0.96 20.16-1.6 30.4-4.48 68.48-9.6 153.28 11.84 201.92 64.96 145.28 202.24 156.48 242.88 156.48 0.96 0 17.92 0.32 17.92 0.32h2.24c40.64 0 178.24-11.2 243.2-156.8 21.44-48.64 16.32-133.44 11.84-201.92l-0.32-3.2c-0.64-9.6-0.96-18.88-1.6-27.52 0.96-0.96 9.28-8.96 28.16-9.92 14.4 0.64 30.72 5.12 48.64 13.76 5.12 2.24 11.2 3.2 15.040 3.2 6.080 0 12.16-0.96 17.28-3.52h0.32c14.72-5.12 24-15.36 24.32-25.92 0.32-9.92-7.68-24.96-45.12-40-3.84-1.28-8.96-3.2-14.080-4.8-21.44-6.72-53.76-16.96-63.68-40.32-5.44-12.8-3.84-28.48 5.12-46.080 0-0.32 0-0.32 0.32-0.64 2.88-6.080 67.52-154.24 212.16-177.92 5.44-0.96 9.28-5.76 8.96-10.88 0-1.92-0.64-4.16-1.28-6.080-5.76-14.080-32.96-33.92-127.040-48.32-7.36-0.96-10.56-11.2-15.36-32-1.6-7.36-3.52-15.040-5.76-23.040-1.92-6.72-6.080-9.92-13.44-9.92h-0.96c-5.12 0-11.84 0.96-21.12 2.88-16 3.2-33.92 6.080-56.32 6.080-13.44 0-26.88-0.96-40.64-3.52-28.48-4.8-52.16-21.44-77.44-39.68-37.76-26.88-76.16-53.76-135.040-53.76z" />
<glyph unicode="&#xe908;" glyph-name="mastodon" d="M903.040 677.44c-50.24 0-75.52-32.64-75.52-96.96v-140.48h-104.32v140.48c0 64.32-25.28 96.96-75.52 96.96-45.44 0-68.16-27.52-68.16-81.6v-256.32h-104.64v264.32c0 54.080 13.76 96.96 41.28 128.64 28.48 31.68 65.92 48 112 48 53.44 0 94.080-20.48 120.96-61.76l26.24-43.84 25.92 43.84c26.88 41.28 67.52 61.76 120.96 61.76 13.76 0 26.24-1.6 38.4-4.48-41.92 94.72-112.64 126.72-112.64 126.72-72 32.96-195.84 47.040-324.48 48h-3.2c-128.64-0.96-252.48-15.040-324.48-48 0 0-143.040-64-143.040-282.24 0-49.92-0.96-109.76 0.64-173.12 5.12-213.44 39.040-423.68 236.48-475.84 90.88-24 168.96-29.12 232-25.6 113.92 6.4 178.24 40.64 178.24 40.64l-3.84 82.88c0 0-81.6-25.6-173.12-22.72-90.88 3.2-186.56 9.92-201.28 121.28-1.28 9.92-1.92 20.16-1.92 31.36 0 0 88.96-21.76 201.92-26.88 69.12-3.2 133.76 4.16 199.36 11.84 125.76 15.040 235.2 92.48 249.6 163.2v248.64c0.32 53.76-22.4 81.28-67.84 81.28zM308.48 616c-31.68 0-57.6 25.6-57.6 57.6s25.6 57.6 57.6 57.6 57.6-25.6 57.6-57.6-25.6-57.6-57.6-57.6z" />
<glyph unicode="&#xe909;" glyph-name="spotify" d="M513.92 956.48c-280.64 0-508.48-227.84-508.48-508.48s227.52-508.48 508.48-508.48c280.64 0 508.48 227.52 508.48 508.48s-227.52 508.48-508.48 508.48zM746.88 222.4c-6.4-10.56-17.28-16.32-28.8-16.32-5.76 0-11.84 1.6-17.28 4.8-200.32 120.32-437.44 50.88-440 49.92-17.6-5.44-36.16 4.48-41.6 22.4s4.48 36.16 22.080 41.6c10.88 3.2 267.52 79.36 493.76-56.64 16-9.6 21.12-30.080 11.84-45.76zM809.92 363.2c-7.36-12.8-20.48-19.84-34.24-19.84-6.72 0-13.44 1.6-19.52 5.12-251.52 144.64-504.96 60.48-507.52 59.52-20.48-7.040-43.2 3.84-50.24 24.64-7.040 20.48 3.84 43.2 24.64 50.24 11.84 4.16 290.24 96.64 572.48-65.92 18.56-10.88 25.28-34.88 14.4-53.76zM838.080 498.88c-7.68 0-15.36 1.92-22.4 5.44-289.92 152.32-587.84 61.12-590.72 60.16-25.6-8-52.8 6.080-60.8 31.68s6.080 52.8 31.68 60.8c13.76 4.48 339.84 104 664.96-66.88 23.68-12.48 32.96-41.92 20.48-65.6-8.96-16.32-25.6-25.6-43.2-25.6z" />
<glyph unicode="&#xe90a;" glyph-name="dropbox" d="M513.92 687.040l-255.040-162.56 255.040-162.56-255.040-162.56-255.040 162.56 255.040 162.56-255.36 162.56 255.040 162.56 255.36-162.56zM257.92 145.6l255.040 162.56 255.040-162.56-255.040-162.56-255.040 162.56zM513.92 361.92l255.040 162.56-255.040 162.56 255.040 162.56 255.040-162.56-255.040-162.56 255.040-162.56-255.040-162.56-255.040 162.56z" />
<glyph unicode="&#xe90b;" glyph-name="mixi" d="M1021.12 512.32c0 237.44-227.84 420.16-509.12 408.64-281.28-11.84-509.12-213.76-509.12-451.2s227.84-420.16 509.12-408.64c14.080 0.64 27.84 1.92 41.28 3.2v-89.92c0 0 467.2 135.68 467.2 516.48v0c0.64 7.36 0.64 14.4 0.64 21.44zM796.8 298.24h-64.64v250.24c-1.28 13.44-5.12 26.24-13.76 37.76-9.92 13.12-22.72 21.76-38.4 24.32-24.96 4.16-49.6 1.92-72-11.84-19.52-11.84-32.64-29.12-42.24-49.92-6.080-13.12-9.6-26.88-11.2-40.96v-209.92h-64.64v242.56c-1.28 12.8-4.16 25.6-10.24 37.44-7.68 15.040-19.2 25.28-35.52 29.76-30.4 8.64-58.56 3.84-84.8-13.12-18.88-12.16-31.36-29.76-39.68-50.56-8-20.16-10.24-41.28-10.24-62.72-0.32-58.24 0-183.040 0-183.040h-64.32v363.84h64.64v-67.84c0 0 6.4 10.56 8 12.16 9.92 10.56 18.88 22.4 29.76 31.68 32 26.56 69.76 34.56 110.4 27.84 32.96-5.44 58.88-22.72 76.16-51.84 2.24-3.52 4.16-7.040 6.080-10.56 1.92-3.2 4.48-9.6 4.48-9.6s2.88 6.4 5.12 9.28c5.44 7.040 10.88 14.4 17.28 20.48 30.080 28.48 65.92 43.2 107.52 44.16 16.96 0.32 33.6-0.96 49.92-6.4 31.36-10.56 50.88-32.96 61.44-63.36 7.36-21.44 10.56-43.84 10.56-66.24v-233.6zM796.8 531.52c0-0.32 0-0.32 0-0.64s0-0.32 0 0c0 0 0 0.32 0 0.64z" />
<glyph unicode="&#xe90c;" glyph-name="behance" d="M921.92 674.88h-254.72v63.36h254.72v-63.36c0 0 0 0 0 0zM497.6 415.36c16.32-25.6 24.64-56.32 24.64-92.8 0-37.44-9.28-71.36-28.16-100.8-11.84-19.84-26.88-36.16-44.8-49.6-20.16-15.36-43.84-26.24-71.36-31.68-27.52-5.76-57.28-8.64-89.28-8.64h-284.8v632.64h305.6c77.12-1.28 131.52-23.68 163.84-67.52 19.2-26.88 28.8-59.2 28.8-96.64 0-38.72-9.6-69.76-29.12-93.12-10.88-13.12-26.88-25.28-48.32-36.16 32-11.52 56.64-30.080 72.96-55.68zM149.44 514.88h133.76c27.52 0 49.6 5.12 66.88 15.68 16.96 10.56 25.6 29.12 25.6 55.68 0 29.44-11.2 48.96-33.92 58.24-19.52 6.4-44.48 9.92-74.56 9.92h-117.76v-139.52zM388.8 331.52c0 32.96-13.44 55.68-40.32 67.84-15.040 7.040-36.16 10.56-63.36 10.88h-135.68v-168.64h133.76c27.52 0 48.64 3.52 64 11.2 27.84 13.76 41.6 40 41.6 78.72zM1016.32 434.56c3.2-20.8 4.48-50.88 3.84-89.92h-329.92c1.92-45.44 17.6-77.44 47.36-95.68 17.92-11.52 39.68-16.96 65.28-16.96 26.88 0 48.96 6.72 65.6 20.8 9.28 7.36 17.28 17.92 24.32 31.040h120.96c-3.2-26.88-17.6-54.080-43.84-81.92-40.64-44.16-97.28-66.24-170.56-66.24-60.48 0-113.6 18.56-159.68 55.68s-69.12 97.6-69.12 181.44c0 78.72 20.8 138.88 62.4 180.8 41.92 41.92 95.68 62.72 162.24 62.72 39.36 0 74.88-7.040 106.56-21.12s57.6-36.48 78.080-67.2c18.88-26.56 31.040-57.92 36.48-93.44zM897.28 422.72c-2.24 31.36-12.8 55.36-31.68 71.68s-42.24 24.64-70.080 24.64c-30.4 0-54.080-8.64-70.72-25.92-16.96-17.28-27.2-40.64-31.68-70.080l204.16-0.32z" />
<glyph unicode="&#xe90d;" glyph-name="discord" d="M419.84 528.32c-29.12 0-52.16-25.6-52.16-56.64s23.36-56.64 52.16-56.64c29.12 0 52.16 25.6 52.16 56.64 0.32 31.040-23.36 56.64-52.16 56.64zM605.76 528.32c-29.12 0-52.16-25.6-52.16-56.64s23.36-56.64 52.16-56.64c29.12 0 52.16 25.6 52.16 56.64s-23.040 56.64-52.16 56.64zM853.76 956.16h-683.52c-57.6 0-104.64-47.040-104.64-104.96v-689.6c0-58.24 47.040-104.96 104.64-104.96h578.56l-26.88 94.4 65.28-60.8 61.76-57.28 109.44-96.96v914.88c0 58.24-47.040 105.28-104.64 105.28zM656.96 289.92c0 0-18.24 22.080-33.6 41.28 66.88 18.88 92.16 60.8 92.16 60.8-20.8-13.76-40.96-23.36-58.56-30.080-25.6-10.56-49.92-17.92-73.92-22.080-48.96-9.28-93.76-6.72-132.16 0.64-29.12 5.76-54.080 13.76-74.88 22.080-11.84 4.48-24.64 10.24-37.12 17.28-1.6 0.96-3.2 1.6-4.48 2.56-0.96 0.64-1.6 0.96-1.92 1.6-9.28 5.12-14.4 8.64-14.4 8.64s24.64-40.96 89.28-60.16c-15.36-19.52-34.24-42.24-34.24-42.24-112.64 3.52-155.52 77.44-155.52 77.44 0 164.16 73.6 297.28 73.6 297.28 73.6 55.040 143.36 53.44 143.36 53.44l5.12-6.080c-91.84-26.56-134.080-66.88-134.080-66.88s11.2 6.080 30.080 14.72c54.72 24 97.92 30.72 115.84 32 3.2 0.64 5.76 0.96 8.64 0.96 31.040 4.16 66.24 5.12 103.040 0.96 48.32-5.76 100.48-19.84 153.6-48.96 0 0-40.32 38.4-127.040 64.64l7.040 8.32c0 0 69.76 1.6 143.36-53.44 0 0 73.6-133.12 73.6-297.28-0.96 0-44.16-73.92-156.8-77.44z" />
<glyph unicode="&#xe90e;" glyph-name="twitch" d="M91.84 960l-68.8-175.68v-718.4h244.48v-129.92h137.6l129.92 129.92h198.72l267.52 267.52v626.56h-909.44zM909.44 379.2l-152.96-152.96h-244.48l-129.92-129.92v129.92h-206.4v641.92h733.76v-488.96zM756.48 692.48v-267.2h-91.84v267.2h91.84zM512 692.48v-267.2h-91.84v267.2h91.84z" />
<glyph unicode="&#xe90f;" glyph-name="slack" d="M215.040 312.96c0-59.2-48.32-107.52-107.52-107.52s-107.52 48.32-107.52 107.52c0 59.2 48.32 107.52 107.52 107.52h107.52v-107.52zM269.44 312.96c0 59.2 48.32 107.52 107.52 107.52s107.52-48.32 107.52-107.52v-269.44c0-59.2-48.32-107.52-107.52-107.52s-107.52 48.32-107.52 107.52v269.44zM376.96 744.96c-59.2 0-107.52 48.32-107.52 107.52s48.32 107.52 107.52 107.52 107.52-48.32 107.52-107.52v-107.52h-107.52zM376.96 690.56c59.2 0 107.52-48.32 107.52-107.52s-48.32-107.52-107.52-107.52h-269.44c-59.2 0-107.52 48.32-107.52 107.52s48.32 107.52 107.52 107.52h269.44zM808.96 583.040c0 59.2 48.32 107.52 107.52 107.52s107.52-48.32 107.52-107.52-48.32-107.52-107.52-107.52h-107.52v107.52zM754.56 583.040c0-59.2-48.32-107.52-107.52-107.52s-107.52 48.32-107.52 107.52v269.44c0 59.2 48.32 107.52 107.52 107.52s107.52-48.32 107.52-107.52v-269.44zM647.040 151.040c59.2 0 107.52-48.32 107.52-107.52s-48.32-107.52-107.52-107.52c-59.2 0-107.52 48.32-107.52 107.52v107.52h107.52zM647.040 205.44c-59.2 0-107.52 48.32-107.52 107.52s48.32 107.52 107.52 107.52h269.44c59.2 0 107.52-48.32 107.52-107.52s-48.32-107.52-107.52-107.52h-269.44z" />
<glyph unicode="&#xe910;" glyph-name="wantedly" d="M4.48 798.080h144.96l217.6-525.12 72.32 175.040-144.96 350.080h144.96l72.64-175.040 72.64 175.040h144.96l-144.96-350.080 72.32-175.040 217.6 525.12h144.96l-289.92-700.16h-144.96l-72.64 175.040-72.64-175.040h-144.96z" />
<glyph unicode="&#xe911;" glyph-name="monsterball" d="M538.24 957.12c34.56-6.4 69.76-10.88 104-19.52 193.28-49.28 344.64-217.92 372.16-413.76 1.28-8.32 0.96-16.96 1.6-28.16-86.080 0-171.52 0-256.64 0-50.88 136.64-130.56 201.6-246.72 201.6-116.48 0-195.2-64.64-247.68-203.84-77.44 0-155.84 0-234.24 0-6.4 0-12.48 0.64-24.32 1.6 6.4 32 10.24 62.72 18.24 91.84 55.68 199.040 230.72 344.64 437.12 364.8 8.32 0.96 16.64 3.52 24.96 5.44 17.28 0 34.24 0 51.52 0zM486.72-61.12c-33.6 6.4-67.52 10.88-100.48 19.2-195.2 48.96-344.64 213.12-375.36 410.88-1.6 9.6-1.6 19.2-2.56 31.36 86.4 0 171.52 0 256.96 0 53.12-137.6 130.24-200.96 246.72-200.96 116.48-0.32 196.16 64.96 247.36 202.24 84.16 0 168.64 0 258.24 0-4.48-25.6-7.36-49.92-13.12-73.28-53.12-211.84-227.52-362.24-445.12-384.32-7.36-0.64-14.4-3.52-21.44-5.44-16.96 0.32-33.92 0.32-51.2 0.32zM511.36 328c-65.6 0.64-120.32 54.72-120.32 118.72-0.32 65.92 54.72 120.96 120.96 121.28 65.92 0.32 122.88-56 121.92-120.32-0.96-66.56-56.32-120.32-122.56-119.68z" />
<glyph unicode="&#xe912;" glyph-name="amazon" d="M5.12 192.64c3.2 4.8 8 5.12 14.72 0.96 154.24-89.28 321.92-134.080 503.040-134.080 120.96 0 240.32 22.4 358.080 67.52 3.2 1.28 7.68 3.2 13.44 5.44 5.76 2.56 9.92 4.16 12.48 5.44 9.28 3.84 16.64 1.92 21.76-5.44s3.52-14.080-5.12-20.48c-11.2-8-25.28-17.28-42.56-27.84-53.12-31.36-112.32-55.68-177.6-72.96s-129.28-25.92-191.36-25.92c-96.32 0-187.2 16.96-272.96 50.56s-162.56 80.96-230.4 142.080c-3.84 3.2-5.44 6.080-5.44 9.28 0 1.92 0.64 3.52 1.92 5.44zM283.52 456.32c0 42.56 10.56 79.040 31.36 109.12 21.12 30.080 49.6 53.12 86.080 68.48 33.28 14.080 74.24 24.32 122.88 30.4 16.96 1.92 43.84 4.48 81.6 7.68v15.68c0 39.36-4.16 65.92-12.8 79.68-12.8 18.56-33.28 27.84-61.12 27.84h-7.36c-20.48-1.92-38.080-8.32-52.8-19.52s-24.32-26.56-28.8-46.4c-2.56-12.48-8.64-19.52-18.56-21.12l-106.24 12.8c-10.56 2.24-15.68 8-15.68 16.64 0 1.92 0.32 4.16 0.96 6.4 10.56 55.040 36.16 95.68 77.12 122.24s88.96 41.28 143.68 44.48h23.040c70.4 0 125.12-18.24 164.8-54.72 6.080-6.080 11.84-12.8 16.96-19.84s9.28-13.44 12.48-18.88c3.2-5.44 5.76-13.44 8.32-24s4.16-17.6 5.44-21.76c1.28-4.16 2.24-12.8 2.88-25.92s0.96-21.12 0.96-23.68v-224c0-16 2.24-30.72 7.040-43.84s8.96-22.72 13.44-28.8c4.16-5.76 11.52-15.36 21.12-28.16 3.84-5.44 5.44-10.56 5.44-14.72 0-4.8-2.56-9.28-7.36-12.8-51.2-44.48-79.040-68.48-83.2-72-7.36-5.44-16.32-6.080-26.88-1.92-8.64 7.36-16.32 14.4-22.72 21.12s-11.2 11.84-13.76 14.72c-2.88 3.2-7.36 8.96-13.44 17.92s-10.56 15.040-12.8 17.92c-34.56-37.76-68.48-61.12-101.76-70.4-20.8-5.76-46.72-8.96-77.44-8.96-47.36 0-86.4 14.72-117.12 43.84s-45.76 70.72-45.76 124.48zM442.56 474.88c0-24 6.080-43.2 17.92-57.92s28.16-21.76 48.64-21.76c1.92 0 4.48 0.32 8 0.96s5.76 0.96 7.040 0.96c25.92 6.72 46.080 23.36 60.16 49.92 6.72 11.84 11.84 24.64 15.36 38.4s5.12 25.28 5.44 33.92c0.32 8.64 0.32 22.72 0.32 42.56v23.040c-35.84 0-63.040-2.56-81.28-7.36-54.4-15.68-81.6-49.6-81.6-102.72zM831.040 176.96c1.28 2.56 3.2 4.8 5.44 7.36 15.36 10.56 30.080 17.6 44.48 21.12 23.36 6.080 46.4 9.6 68.48 10.24 6.080 0.64 12.16 0.32 17.6-0.96 27.84-2.56 44.48-7.040 49.92-13.76 2.56-3.84 3.84-9.28 3.84-16.64v-6.4c0-21.44-5.76-47.040-17.6-76.16-11.84-29.44-28.16-52.8-48.96-70.72-3.2-2.56-5.76-3.84-8.32-3.84-1.28 0-2.56 0.32-3.84 0.96-3.84 1.92-4.48 5.12-2.88 10.24 22.72 53.76 34.24 90.88 34.24 112 0 6.72-1.28 11.84-3.84 14.72-6.080 7.36-23.36 11.2-51.84 11.2-10.56 0-22.72-0.64-37.12-1.92-15.36-1.92-29.44-3.84-42.56-5.44-3.84 0-6.080 0.64-7.36 1.92s-1.6 2.56-0.96 3.84c0.32 0 0.64 0.96 1.28 2.24z" />
<glyph unicode="&#xe913;" glyph-name="niconico" d="M908.48 722.56h-320.96l186.56 185.28-46.4 45.76-216.64-215.36-216 214.4-46.080-45.76 185.6-184.32h-319.040c-46.72 0-84.8-37.76-84.8-84.16v-505.6c0-46.72 38.080-84.16 84.8-84.16h100.16l54.72-88c5.44-8 11.84-9.6 17.6-9.6 6.080 0 12.8 2.56 17.6 9.6l54.72 88h293.12l54.72-88c5.44-8 11.84-9.6 17.6-9.6 6.080 0 12.8 2.56 17.28 9.6l54.72 88h110.72c47.040 0 84.8 37.44 84.8 84.16v505.6c0 46.4-37.76 84.16-84.8 84.16z" />
<glyph unicode="&#xe914;" glyph-name="mixcloud" d="M936 146.24c-6.4 0-13.12 1.92-18.88 5.76-15.68 10.56-19.84 31.68-9.28 47.36 31.36 47.040 48 101.76 48 158.72s-16.64 112-48 158.72c-10.56 15.68-6.4 36.8 9.28 47.36s36.8 6.4 47.36-9.28c39.040-58.24 59.52-126.080 59.52-196.8 0-70.4-20.48-138.56-59.52-196.8-6.72-9.6-17.28-15.040-28.48-15.040v0zM838.72 201.6c-6.72 0-13.12 1.92-19.2 5.76-15.68 10.56-19.52 31.68-8.96 47.36 20.8 30.72 31.68 66.24 31.68 103.36s-10.88 72.64-31.68 103.36c-10.56 15.68-6.4 36.8 8.96 47.36 15.68 10.56 36.8 6.4 47.36-8.96 28.48-41.92 43.52-90.88 43.52-141.76 0-50.56-15.040-99.84-43.52-141.76-6.4-9.6-17.28-14.72-28.16-14.72v0zM679.68 506.56c-13.44 136.32-128.96 243.2-268.8 243.2-116.16 0-218.88-74.56-256-183.040-87.36-12.8-154.88-88.32-154.88-179.2 0-99.84 81.6-181.44 181.76-181.44h465.28c83.84 0 152 68.16 152 152 0 72.64-51.2 133.44-119.36 148.48zM646.72 274.24h-464.96c-62.72 0-113.6 50.88-113.6 113.28s50.88 113.28 113.6 113.28c30.4 0 58.88-11.84 80.32-33.28 13.44-13.44 34.88-13.44 48 0 13.44 13.44 13.44 34.88 0 48-23.36 23.36-52.16 39.36-83.52 47.36 32.32 71.040 104 118.4 184 118.4 111.36 0 202.24-90.56 202.24-201.92 0-21.76-3.52-42.88-10.24-63.040-5.76-17.92 3.84-37.12 21.44-42.88 3.52-1.28 7.040-1.6 10.88-1.6 14.4 0 27.52 8.96 32.32 23.36 4.48 13.44 7.68 27.2 9.92 40.96 31.36-12.16 53.44-42.56 53.44-78.080 0.32-46.080-37.44-83.84-83.84-83.84z" />
<glyph unicode="&#xe915;" glyph-name="soundcloud" d="M0 345.28c0-34.56 15.68-65.6 40.64-86.4v172.8c-24.96-20.8-40.64-51.84-40.64-86.4zM83.52 454.4v-218.24c10.24-2.88 20.8-4.48 31.68-4.48h11.2v226.56c-3.84 0.32-7.36 0.64-11.2 0.64-10.88 0-21.44-1.6-31.68-4.48zM178.24 440.32c-2.88 1.92-5.76 3.52-8.96 5.12v-213.76h42.88v285.76c-16.96-22.080-28.8-48.32-33.92-77.12zM255.36 557.76v-326.080h42.88v347.2c-15.36-5.12-29.76-12.48-42.88-21.12zM341.12 587.84v-355.84h42.88v354.56c-8.96 1.28-17.92 1.92-27.2 1.92-5.12 0-10.56-0.32-15.68-0.64zM450.56 562.56c-14.080 8.32-29.12 14.72-45.12 19.2v-350.080h64.32v356.8c-6.72-8-13.12-16.64-19.2-25.92zM491.52 609.92v-378.24h408v0.64c85.76 5.44 124.48 58.88 124.48 123.84 0 68.8-51.84 124.16-121.92 124.16-17.92 0-32.64-3.52-48.32-10.24-11.2 109.12-103.68 194.24-217.6 194.24-55.36 0-106.24-20.48-144.64-54.4z" />
<glyph unicode="&#xe916;" glyph-name="lastfm" d="M779.84 163.52c-202.88 0-273.28 91.52-310.72 205.12l-37.44 117.44c-28.16 85.76-61.12 152.64-164.16 152.64-71.68 0-144.32-51.52-144.32-195.84 0-112.64 57.6-183.040 138.24-183.040 91.52 0 152.64 68.16 152.64 68.16l37.44-102.080c0 0-63.36-62.080-195.84-62.080-164.16-0.32-255.68 96-255.68 274.24 0 185.28 91.52 294.4 264 294.4 156.16 0 234.56-56.32 283.84-208.64l38.72-117.44c28.16-85.76 77.44-147.84 195.84-147.84 79.68 0 121.92 17.6 121.92 61.12 0 33.92-19.84 58.56-79.68 72.64l-79.68 18.88c-97.28 23.36-136 73.92-136 153.6 0 128 103.36 167.68 208.96 167.68 119.68 0 192.32-43.52 201.92-149.12l-117.44-14.080c-4.8 50.56-35.2 71.68-91.52 71.68-51.52 0-83.2-23.36-83.2-63.36 0-35.2 15.36-56.32 66.88-68.16l75.2-16.32c100.8-23.36 154.88-72.64 154.88-167.68-0.64-117.44-99.2-161.92-244.8-161.92z" />
<glyph unicode="&#xe917;" glyph-name="linkedin" d="M231.36 843.52c0-60.48-44.48-109.12-117.76-109.12-69.12 0-113.6 48.96-113.6 109.12 0 61.76 46.080 109.12 116.48 109.12 70.4 0.32 113.6-47.36 114.88-109.12zM5.76-54.72v702.72h218.56v-702.72h-218.56zM354.88 424c0 87.68-2.88 160.96-5.76 224.32h189.76l9.92-97.6h4.16c28.8 46.080 99.2 113.6 216.96 113.6 143.68 0 251.52-96.32 251.52-303.36v-415.36h-218.56v389.12c0 90.56-31.68 152.32-110.72 152.32-60.48 0-96.32-41.6-112-81.92-5.76-14.4-7.36-34.56-7.36-54.72v-405.44h-218.56v479.040z" />
<glyph unicode="&#xe918;" glyph-name="pinterest" d="M401.6 104.64c7.68 30.080 40 152.96 40 152.96 21.12-40 82.24-73.92 147.52-73.92 193.92 0 333.76 178.56 333.76 400 0 212.48-173.44 371.52-396.48 371.52-277.44 0-424.96-186.24-424.96-389.12 0-94.4 50.24-211.84 130.56-249.28 12.16-5.76 18.56-3.2 21.44 8.64 2.24 8.96 13.12 52.48 17.92 72.96 1.6 6.4 0.64 12.16-4.48 18.56-26.56 32.32-48 91.52-48 146.88 0 141.76 107.52 279.040 290.56 279.040 158.080 0 268.8-107.84 268.8-261.76 0-174.080-88-294.4-202.24-294.4-63.040 0-110.4 52.16-95.36 116.16 18.24 76.48 53.12 159.040 53.12 214.080 0 49.28-26.56 90.56-81.28 90.56-64.64 0-116.48-66.88-116.48-156.16 0-56.96 19.2-95.36 19.2-95.36s-63.68-269.44-75.52-319.68c-12.8-55.68-8-133.76-2.24-184.64 14.4-5.76 29.12-10.88 43.84-15.36 26.56 42.56 65.6 112.32 80.32 168.32z" />
<glyph unicode="&#xe919;" glyph-name="tiktok" d="M707.52 960v-0.96c0-15.68 4.48-240.96 240.96-255.040 0-209.6 0 0 0-174.080-17.92-0.96-155.52 8.96-241.6 85.44l0.32-338.88c2.24-153.6-83.2-304-243.2-334.4-44.8-8.64-85.12-9.6-152.96 5.44-390.4 116.8-260.48 695.68 131.2 633.6 0-186.88 0 0 0-186.88-161.92 23.68-216-110.72-173.12-207.36 39.040-87.68 200.32-106.88 256.64 16.96 6.4 24.32 9.6 51.84 9.6 82.88v673.28h172.16z" />
<glyph unicode="&#xe91a;" glyph-name="skype" d="M513.92 139.2c-169.6 0-247.040 86.4-247.040 149.76 0 32.64 25.6 55.040 57.92 55.040 72.64 0 53.76-108.8 189.12-108.8 69.44 0 109.76 41.6 109.76 80.64 0 23.68-13.44 49.6-59.2 61.12l-150.72 38.080c-121.6 30.72-142.72 98.56-142.72 160.96 0 130.24 119.040 177.28 232.32 177.28 104.32 0 228.48-57.6 228.48-135.68 0-33.6-28.16-51.52-60.8-51.52-62.080 0-51.52 87.040-176.32 87.040-62.080 0-94.72-29.12-94.72-69.76s48-54.4 90.24-64.32l111.68-25.28c122.24-27.52 154.88-99.2 154.88-167.68 0.32-105.28-81.6-186.88-242.88-186.88zM982.080 363.2c4.8 27.2 7.040 55.040 7.040 83.52 0 265.28-213.76 480-477.44 480-28.48 0-56-2.56-82.88-7.040-41.6 24-89.6 37.44-140.8 37.44-156.8 0-283.84-128-283.84-285.44 0-51.52 13.44-99.84 37.44-141.44-4.8-27.2-7.040-55.040-7.040-83.52 0-265.28 213.76-480.32 477.44-480.32 28.16 0 56 2.56 82.88 7.36 41.6-24 89.6-37.44 140.8-37.44 156.8 0 283.84 127.68 283.84 285.44 0 51.2-13.44 99.52-37.44 141.44z" />
<glyph unicode="&#xe91b;" glyph-name="microsoft" d="M0 960h486.72v-486.72h-486.72v486.72zM537.28 960h486.72v-486.72h-486.72v486.72zM0 422.72h486.72v-486.72h-486.72v486.72zM537.28 422.72h486.72v-486.72h-486.72v486.72z" />
<glyph unicode="&#xe91c;" glyph-name="windows" d="M5.12 811.52l414.72 56.96v-400.64h-414.72zM469.76 876.48l549.12 80.32v-485.44h-549.12zM5.12 425.6h414.72v-401.92l-414.72 57.92zM469.76 420.16h549.44v-480.96l-549.44 77.76z" />
<glyph unicode="&#xe91d;" glyph-name="android" d="M940.16 557.76c0 34.56-28.16 62.72-62.72 62.72s-62.72-28.16-62.72-62.72v-261.12c0-34.56 28.16-62.72 62.72-62.72s62.72 28.16 62.72 62.72v261.12zM208.96 557.76c0 34.56-28.16 62.72-62.72 62.72s-62.72-28.16-62.72-62.72v-261.12c0-34.56 28.16-62.72 62.72-62.72s62.72 28.16 62.72 62.72v261.12zM648.96 856.32l44.16 79.68c2.24 4.16 0.96 9.6-3.52 12.16-1.28 0.64-2.88 0.96-4.16 0.96-3.2 0-6.080-1.6-7.68-4.48l-44.8-80.64c-36.48 16.32-77.76 25.6-120.96 25.6s-84.48-8.96-120.96-25.28l-44.8 80.64c-2.24 4.16-7.68 5.76-12.16 3.52-4.16-2.24-5.76-7.68-3.52-12.16l44.16-79.68c-84.8-44.16-142.4-128.32-142.4-224.64h559.040c0 96.32-57.28 180.16-142.4 224.32zM383.040 734.080c-12.8 0-23.36 10.56-23.36 23.36s10.56 23.36 23.36 23.36c12.8 0 23.36-10.56 23.36-23.36s-10.56-23.36-23.36-23.36zM640.96 734.080c-12.8 0-23.36 10.56-23.36 23.36s10.56 23.36 23.36 23.36c12.8 0 23.36-10.56 23.36-23.36s-10.56-23.36-23.36-23.36zM232.32 609.6v-405.12c0-37.44 30.4-67.52 67.52-67.52h44.8v-138.24c0-34.56 28.16-62.72 62.72-62.72s62.72 28.16 62.72 62.72v138.24h83.52v-138.24c0-34.56 28.16-62.72 62.72-62.72s62.72 28.16 62.72 62.72v138.24h44.8c37.44 0 67.52 30.4 67.52 67.52v405.12h-559.040z" />
<glyph unicode="&#xe91e;" glyph-name="apple" d="M927.040 208c-2.88-7.68-5.44-16-8.64-24.32-25.28-68.8-64-129.92-111.040-185.92-8.96-10.88-19.52-20.8-30.4-30.080-21.44-18.24-46.4-29.12-74.88-30.080-21.44-0.64-42.24 3.2-62.080 11.2-14.4 5.76-28.48 12.48-43.2 17.92-47.36 17.28-94.72 15.040-141.12-3.52-16.96-6.72-33.28-14.080-50.56-19.84-19.84-6.72-40.32-9.28-61.44-5.44-18.24 3.52-34.24 11.84-49.28 23.040-18.56 13.76-33.92 30.4-48.32 48-68.48 83.84-114.56 178.24-136.96 284.48-9.6 45.44-14.080 91.52-11.52 138.24 3.2 56 16.32 109.12 46.080 157.12 37.76 59.52 90.56 99.2 160 115.2 41.92 9.92 82.56 5.76 122.24-9.6 21.12-8 41.92-16 63.040-24 19.52-7.36 38.72-7.36 58.24 0 21.44 8.32 42.88 16.32 64.64 24.32 22.080 8 44.48 14.72 68.16 16.64 35.2 2.88 69.44-1.6 102.72-12.8 47.36-15.68 85.76-43.84 114.88-84.48 0.64-0.96 1.6-2.24 2.24-3.2-73.28-51.2-114.88-118.4-108.8-209.92 6.080-91.2 55.36-152.96 136-192.96zM516.16 723.2c21.76-0.64 42.24 3.52 62.4 11.52 91.2 36.16 138.88 132.8 137.6 206.72 0 6.080-0.64 11.84-0.64 18.88-9.28-1.28-17.92-1.92-26.24-4.16-66.56-16.32-117.76-53.44-151.68-113.6-19.84-35.2-30.72-72.64-27.2-113.6 0-4.8 1.6-5.76 5.76-5.76z" />
<glyph unicode="&#xe91f;" glyph-name="yahoo" d="M223.68 196.8c1.28 9.28 2.56 18.88 3.84 29.76 23.040 3.2 46.4 5.12 69.12 9.6 35.84 7.040 41.6 15.36 41.6 51.84 0 14.080-1.6 28.8 0.32 42.56 6.080 46.080-8.64 83.52-39.040 118.4-46.4 53.44-91.52 107.84-133.76 164.16-31.040 41.28-70.080 59.2-120 60.48-14.72 0.32-29.12 3.84-45.76 6.080 1.6 11.84 3.2 22.4 4.8 33.6 128.96 0 257.6 0 387.2 0-1.92-10.56-3.52-20.16-5.76-31.36-38.72-3.2-76.8-6.4-123.2-10.24 59.84-79.36 116.16-154.24 174.4-231.040 56.64 53.12 122.56 93.44 174.080 159.040-30.72 4.8-56.32 9.28-81.92 12.8-29.12 3.84-30.4 4.8-28.48 37.12 108.48 0 217.28 0 327.68 0-8.64-19.52-16.32-36.8-41.92-38.4-60.16-4.16-109.12-33.28-153.28-71.68-45.12-39.36-90.24-78.080-135.68-117.12-18.24-16-26.24-35.52-24.96-60.48 1.6-33.28 1.6-66.88 0.96-100.16-0.32-15.040 3.84-21.44 20.16-21.76 31.040-0.64 62.080-3.84 96-6.4-0.96-12.8-1.6-23.68-2.56-36.8-121.6 0-242.24 0-363.84 0zM777.6 330.56c34.24 112 68.16 222.080 102.72 334.72 48.96-15.040 95.36-29.12 143.68-44.16-25.6-43.52-50.24-84.8-74.56-126.080-33.6-56.96-67.2-113.92-100.16-171.2-5.44-9.28-10.56-13.44-21.76-9.6-16 6.080-32.32 10.88-49.92 16.32zM820.48 248c-0.32-2.88 0-3.84-0.32-4.48-9.28-20.48-18.88-40.96-28.16-61.12-27.2 7.040-54.080 13.76-83.52 21.12 10.56 24.64 20.16 47.040 30.4 70.4 27.52-8.96 54.4-17.28 81.6-25.92z" />
<glyph unicode="&#xe920;" glyph-name="tumblr" d="M767.040-64h-170.88c-153.92 0-268.8 79.36-268.8 268.8v303.68h-140.16v164.16c153.92 40 218.56 172.48 225.92 287.36h160v-260.48h186.56v-191.040h-186.56v-264.32c0-79.36 40-106.56 103.68-106.56h90.24v-201.6z" />
<glyph unicode="&#xe921;" glyph-name="flickr" d="M1024 450.88c0-133.079-103.44-240.96-231.040-240.96s-231.040 107.881-231.040 240.96c0 133.079 103.44 240.96 231.040 240.96s231.040-107.881 231.040-240.96zM449.28 448c0-134.669-100.575-243.84-224.64-243.84s-224.64 109.171-224.64 243.84c0 134.669 100.575 243.84 224.64 243.84s224.64-109.171 224.64-243.84z" />
<glyph unicode="&#xe922;" glyph-name="twitter" d="M321.28 30.4c387.84 0 600.32 321.6 600.32 600.32 0 9.28 0 18.24-0.64 27.2 41.28 29.76 76.8 66.88 105.28 109.12-38.4-16.96-79.36-28.16-121.28-33.28 44.16 26.24 77.12 67.84 92.8 116.8-41.28-24.64-86.72-41.92-134.080-51.2-80 84.8-213.44 88.96-298.56 9.28-54.72-51.52-78.080-128.32-61.12-201.6-169.6 8.64-327.68 88.64-434.88 220.48-56-96.32-27.52-219.84 65.28-281.6-33.6 0.96-66.56 9.92-95.68 26.56 0-0.96 0-1.92 0-2.56 0-100.48 70.72-186.88 169.28-206.72-31.040-8.32-63.68-9.6-95.36-3.52 27.52-86.080 106.88-144.64 197.12-146.56-74.56-58.56-167.040-90.56-262.080-90.56-16.64 0-33.6 0.96-50.24 3.2 96.96-62.72 209.28-95.36 323.84-95.36z" />
<glyph unicode="&#xe923;" glyph-name="line" d="M1023.36 520.32c0 228.8-229.44 415.36-511.68 415.36-282.24-0.32-511.68-186.56-511.68-415.36 0-205.12 182.080-377.28 427.84-409.6 16.64-3.52 39.36-10.88 45.12-25.28 5.12-12.8 3.52-33.28 1.6-46.4 0 0-6.080-36.16-7.36-43.84-2.24-12.8-10.24-50.56 44.16-27.52 54.72 23.040 294.72 173.44 401.92 296.96v0c74.56 81.6 110.080 164.16 110.080 255.68zM331.2 398.080c0-5.44-4.48-9.92-9.92-9.92h-143.36c-2.56 0-5.12 0.96-7.040 2.88 0 0 0 0 0 0s0 0 0 0c-1.6 1.92-2.88 4.16-2.88 6.72v0 223.040c0 5.44 4.48 9.92 9.92 9.92h35.84c5.44 0 9.92-4.48 9.92-9.92v-176.96h97.6c5.44 0 9.92-4.48 9.92-9.92v-35.84zM417.6 398.080c0-5.44-4.48-9.92-9.92-9.92h-35.84c-5.44 0-9.92 4.48-9.92 9.92v223.040c0 5.44 4.48 9.92 9.92 9.92h35.84c5.44 0 9.92-4.48 9.92-9.92v-223.040zM664.64 398.080c0-5.44-4.48-9.92-9.92-9.92h-35.84c-0.96 0-1.6 0-2.56 0.32 0 0 0 0 0 0-0.32 0-0.32 0-0.64 0.32 0 0-0.32 0-0.32 0-0.32 0-0.32 0-0.64 0.32-0.32 0-0.32 0-0.32 0.32 0 0-0.32 0-0.32 0-0.32 0-0.32 0.32-0.64 0.32 0 0 0 0 0 0-0.96 0.64-1.92 1.6-2.56 2.56l-102.4 138.24v-132.48c0-5.44-4.48-9.92-9.92-9.92h-35.84c-5.44 0-9.92 4.48-9.92 9.92v223.040c0 5.44 4.48 9.92 9.92 9.92h35.84c0 0 0.32 0 0.32 0 0.32 0 0.32 0 0.64 0s0.32 0 0.64 0c0 0 0.32 0 0.32 0 0.32 0 0.32 0 0.64 0 0 0 0.32 0 0.32 0 0.32 0 0.32 0 0.64-0.32 0 0 0.32 0 0.32 0 0.32 0 0.32-0.32 0.64-0.32 0 0 0.32 0 0.32 0 0.32 0 0.32-0.32 0.64-0.32 0 0 0.32 0 0.32-0.32 0.32 0 0.32-0.32 0.64-0.32 0 0 0.32 0 0.32-0.32 0.32 0 0.32-0.32 0.64-0.32 0 0 0 0 0.32-0.32s0.32-0.32 0.64-0.64c0 0 0 0 0 0 0.32-0.32 0.64-0.64 0.64-0.96l102.080-137.92v132.48c0 5.44 4.48 9.92 9.92 9.92h35.84c5.44 0 9.92-4.48 9.92-9.92v-223.36zM862.72 584.96c0-5.44-4.48-9.92-9.92-9.92h-97.6v-37.76h97.6c5.44 0 9.92-4.48 9.92-9.92v-35.84c0-5.44-4.48-9.92-9.92-9.92h-97.6v-37.76h97.6c5.44 0 9.92-4.48 9.92-9.92v-35.84c0-5.44-4.48-9.92-9.92-9.92h-143.36c-2.56 0-5.12 0.96-7.040 2.88 0 0 0 0 0 0s0 0 0 0c-1.6 1.92-2.88 4.16-2.88 7.040v0 222.72c0 2.56 0.96 5.12 2.88 6.72 0 0 0 0 0.32 0.32 0 0 0 0 0 0 1.92 1.6 4.16 2.88 7.040 2.88v0h143.36c5.44 0 9.92-4.48 9.92-9.92v-35.84z" />
<glyph unicode="&#xe924;" glyph-name="wordpress" d="M512 960c-282.24 0-512-229.76-512-512s229.76-512 512-512c282.24 0 512 229.76 512 512s-229.76 512-512 512zM51.52 448c0 66.88 14.4 130.24 40 187.2l219.52-601.6c-153.6 74.88-259.52 232.32-259.52 414.4zM512-12.48c-45.12 0-88.64 6.72-129.92 18.88l138.24 401.28 141.44-387.52c0.96-2.24 1.92-4.48 3.2-6.4-48-16.96-99.52-26.24-152.96-26.24zM575.36 664c27.84 1.6 52.8 4.48 52.8 4.48 24.96 2.88 21.76 39.36-2.88 38.080 0 0-74.56-5.76-122.56-5.76-45.12 0-121.28 5.76-121.28 5.76-24.96 1.6-27.84-36.48-2.88-38.080 0 0 23.36-2.88 48.32-4.48l71.68-196.48-100.8-302.080-167.68 498.56c27.84 1.6 52.8 4.48 52.8 4.48 24.64 2.88 21.76 39.36-2.88 38.080 0 0-74.56-5.76-122.56-5.76-8.64 0-18.88 0.32-29.76 0.64 81.92 124.48 223.36 207.040 384.32 207.040 119.68 0 228.8-45.76 310.72-120.96-1.92 0-3.84 0.32-6.080 0.32-45.12 0-77.44-39.36-77.44-81.6 0-38.080 21.76-70.080 45.12-107.84 17.6-30.72 38.080-70.080 38.080-127.040 0-39.36-15.040-85.12-34.88-148.8l-46.080-153.28-166.080 494.72zM915.84 668.8c35.84-65.6 56.32-140.8 56.32-220.8 0-169.92-92.16-318.080-228.8-397.76l140.48 406.4c26.24 65.6 34.88 118.080 34.88 164.8 0.32 16.96-0.96 32.64-2.88 47.36z" />
<glyph unicode="&#xe925;" glyph-name="youtube" d="M1002.56 696c-11.84 44.48-46.4 79.36-90.56 91.2-79.68 21.44-400 21.44-400 21.44s-320.32 0-400-21.44c-44.16-11.84-78.72-46.72-90.56-91.2-21.44-80.32-21.44-248-21.44-248s0-167.68 21.44-248c11.84-44.48 46.4-79.36 90.56-91.2 80-21.44 400-21.44 400-21.44s320.32 0 400 21.44c44.16 11.84 78.72 46.72 90.56 91.2 21.44 80.32 21.44 248 21.44 248s0 167.68-21.44 248zM407.36 295.68v304.64l267.52-152.32-267.52-152.32z" />
<glyph unicode="&#xe926;" glyph-name="facebook" d="M1028.48 444.16c0 284.16-230.4 514.24-514.24 514.24s-514.24-230.4-514.24-514.24c0-256.96 188.16-469.44 433.92-508.16v359.36h-130.56v148.8h130.56v113.28c0 128.96 76.8 200 194.24 200 56.32 0 115.2-9.92 115.2-9.92v-126.72h-64.96c-64 0-83.84-39.68-83.84-80.32v-96.32h142.72l-22.72-148.8h-119.68v-359.36c245.76 38.72 433.6 251.2 433.6 508.16z" />
<glyph unicode="&#xe927;" glyph-name="pocket" d="M89.6 889.28c-55.68-3.52-89.6-35.52-89.6-92.16v-339.2c0-275.52 273.92-492.16 511.040-490.56 266.56 1.92 512.96 227.2 512.96 490.56v339.2c0 56.96-35.84 88.96-92.16 92.16h-842.24zM305.6 613.44l205.76-195.52 205.76 195.52c92.16 38.72 132.48-66.56 94.4-97.28l-268.16-256c-8.64-8.32-55.68-8.32-64.32 0l-268.16 256c-36.16 33.92 10.88 140.8 94.72 97.28v0z" />
<glyph unicode="&#xe928;" glyph-name="github" d="M511.040 953.6c-282.24 0-511.040-228.8-511.040-511.040 0-225.6 146.24-417.28 349.44-484.8 25.6-4.8 34.88 11.2 34.88 24.64 0 12.16-0.32 52.48-0.64 95.040-142.080-31.040-172.16 60.16-172.16 60.16-23.36 59.2-56.64 74.88-56.64 74.88-46.4 31.68 3.52 31.040 3.52 31.040 51.2-3.52 78.4-52.8 78.4-52.8 45.44-78.080 119.68-55.68 148.8-42.56 4.48 32.96 17.92 55.68 32.32 68.16-113.6 12.8-232.64 56.64-232.64 252.48 0 55.68 19.84 101.44 52.8 137.28-5.44 12.8-22.72 64.96 4.8 135.36 0 0 42.88 13.76 140.48-52.48 40.64 11.2 84.48 16.96 128 17.28 43.52-0.32 87.040-5.76 128-17.28 97.6 66.24 140.48 52.48 140.48 52.48 27.84-70.4 10.24-122.24 5.12-135.36 32.64-35.84 52.48-81.28 52.48-137.28 0-196.16-119.68-239.36-233.28-252.16 18.24-16 34.56-47.040 34.56-94.72 0-68.48-0.64-123.52-0.64-140.16 0-13.44 9.28-29.44 35.2-24.64 202.88 67.52 349.12 259.2 349.12 484.8-0.64 282.88-229.44 511.68-511.36 511.68zM193.6 219.84c-1.28-2.56-5.12-3.2-8.64-1.6-3.84 1.6-5.76 5.12-4.48 7.68 0.96 2.56 5.12 3.2 8.64 1.6s5.76-5.12 4.48-7.68v0zM214.080 196.8c-2.56-2.24-7.36-1.28-10.56 2.24s-3.84 8.32-1.6 10.56c2.56 2.24 7.040 1.28 10.56-2.24s4.16-8.32 1.6-10.56v0zM234.24 167.36c-3.2-2.24-8.32 0-11.52 4.48s-3.2 9.92 0 12.16c3.2 2.24 8.32 0.32 11.52-4.16 3.2-4.8 3.2-10.24 0-12.48v0zM262.080 138.88c-2.88-3.2-8.64-2.24-13.12 1.92s-5.76 9.92-2.88 13.12c2.88 3.2 8.96 2.24 13.12-1.92 4.48-4.16 5.76-9.92 2.88-13.12v0zM300.16 122.56c-1.28-3.84-7.040-5.76-12.8-4.16s-9.6 6.4-8.32 10.56c1.28 4.16 7.040 6.080 12.8 4.16 5.44-1.92 9.28-6.4 8.32-10.56v0zM341.76 119.36c0-4.16-4.8-7.68-10.88-7.68s-11.2 3.2-11.2 7.36c0 4.16 4.8 7.68 10.88 7.68 6.4 0.32 11.2-3.2 11.2-7.36v0zM380.8 126.080c0.64-4.16-3.52-8.32-9.6-9.6-6.080-0.96-11.52 1.6-12.16 5.44-0.64 4.16 3.52 8.32 9.6 9.6 5.76 1.28 11.2-1.28 12.16-5.44v0z" />
<glyph unicode="&#xe929;" glyph-name="rss" d="M151.68 239.36c-83.52 0-151.68-67.84-151.68-151.68 0-83.52 68.16-151.68 151.68-151.68s151.68 68.16 151.68 151.68c0.32 83.84-67.84 151.68-151.68 151.68zM15.68 624.96c-8.64 0-15.68-7.040-15.68-16v-192.64c0-8.64 7.040-15.68 15.68-15.68 247.36 0 448.96-201.28 448.96-448.96 0-8.64 7.040-15.68 15.68-15.68h193.28c8.64 0 16 7.040 16 15.68l-0.64 4.8c-2.88 368.96-303.68 668.48-673.28 668.48zM1023.040-43.2c-2.56 553.28-453.44 1002.24-1007.36 1002.24-8.64 0-15.68-7.040-15.68-15.68v-198.4c0-8.64 7.040-15.68 15.68-15.68 428.8 0 777.28-348.8 777.28-777.28 0-8.64 7.040-15.68 15.68-15.68h199.36c8.64 0 16 7.040 16 15.68l-0.96 4.8z" />
<glyph unicode="&#xe92a;" glyph-name="google" d="M1000.64 541.12h-477.12v-197.76h274.56c-25.6-125.76-132.8-197.76-274.56-197.76-167.68 0-302.4 135.040-302.4 302.4s135.040 302.4 302.4 302.4c72 0 137.28-25.6 188.48-67.52l149.12 149.12c-90.88 79.040-207.040 128-337.6 128-283.84 0-512-228.16-512-512s228.16-512 512-512c256 0 488.64 186.24 488.64 512 0.32 30.4-4.48 62.72-11.52 93.12z" />
<glyph unicode="&#xe92b;" glyph-name="feedly" d="M991.36 464.96l-402.24 402.56c-43.2 43.2-114.24 43.2-157.44 0l-399.040-399.040c-43.2-43.2-43.2-114.24 0-157.44l236.16-236.16c43.2-43.2 75.52-78.72 136.96-78.72h216.64c61.12 0 93.44 35.52 136.96 78.72l232.32 232.32c43.2 43.52 43.2 114.24-0.32 157.76zM400.64 213.12h-19.84c-6.4 0-15.68 3.84-20.16 8.32l-39.040 39.040c-4.48 4.48-4.48 12.16 0 16.64l180.16 180.16c4.48 4.48 12.16 4.48 16.64 0l60.8-60.8c4.48-4.48 4.48-12.16 0-16.64l-158.4-158.4c-4.48-4.48-13.44-8.32-20.16-8.32zM579.84 141.76l-39.68-39.68c-4.48-4.48-13.76-8.32-20.16-8.32h-19.84c-6.4 0-15.68 3.84-20.16 8.32l-39.040 39.040c-4.48 4.48-4.48 12.16 0 16.64l61.44 61.44c4.48 4.48 12.16 4.48 16.64 0l60.8-60.8c4.48-4.48 4.48-11.84 0-16.64zM580.48 618.24l-278.080-278.080c-4.48-4.48-13.76-8.32-20.16-8.32h-19.84c-6.4 0-15.68 3.84-20.16 8.32l-39.040 39.040c-4.48 4.48-4.48 12.16 0 16.64l299.84 299.84c4.48 4.48 12.16 4.48 16.64 0l60.8-60.8c4.8-4.8 4.8-12.16 0-16.64z" />
<glyph unicode="&#xe92c;" glyph-name="git" d="M1004.8 490.24l-443.2 443.52c-25.6 25.6-66.88 25.6-92.48 0l-92.16-92.16 116.8-116.8c27.2 9.28 58.24 2.88 80-18.56 21.76-21.76 27.84-53.12 18.56-80.32l112.64-112.64c27.2 9.28 58.56 3.2 80.32-18.56 30.4-30.4 30.4-79.68 0-110.080s-79.68-30.4-110.080 0c-22.72 23.040-28.48 56.32-16.96 84.48l-104.96 104.96v-276.16c7.36-3.52 14.4-8.64 20.48-14.72 30.4-30.4 30.4-79.68 0-110.080s-79.68-30.4-110.080 0c-30.4 30.4-30.4 79.68 0 110.080 7.36 7.36 16.32 13.12 25.6 16.96v279.040c-9.28 3.84-17.92 9.28-25.6 16.96-23.040 23.040-28.48 56.96-16.64 85.12l-115.2 115.2-304-304c-25.6-25.6-25.6-66.88 0-92.48l443.52-443.52c25.6-25.6 66.88-25.6 92.48 0l440.96 441.28c25.6 25.6 25.6 66.88 0 92.48z" />
<glyph unicode="&#xe92d;" glyph-name="instagram" d="M512 866.88c136.64 0 152.96-0.64 207.040-2.88 49.92-2.24 77.12-10.56 95.040-17.6 24-9.28 40.96-20.48 58.88-38.4s29.12-34.88 38.4-58.88c7.040-17.92 15.36-45.12 17.6-95.040 2.56-54.080 2.88-70.080 2.88-207.040s-0.64-152.96-2.88-207.040c-2.24-49.92-10.56-77.12-17.6-95.040-9.28-24-20.48-40.96-38.4-58.88s-34.88-29.12-58.88-38.4c-17.92-7.040-45.12-15.36-95.040-17.6-54.080-2.56-70.080-2.88-207.040-2.88s-152.96 0.64-207.040 2.88c-49.92 2.24-77.12 10.56-95.040 17.6-24 9.28-40.96 20.48-58.88 38.4s-29.12 34.88-38.4 58.88c-7.040 17.92-15.36 45.12-17.6 95.040-2.56 54.080-2.88 70.080-2.88 207.040s0.64 152.96 2.88 207.040c2.56 49.92 10.88 76.8 17.92 95.040 9.28 24 20.48 40.96 38.4 58.88s34.88 29.12 58.88 38.4c17.92 6.72 44.8 15.36 94.72 17.6 54.080 2.24 70.4 2.88 207.040 2.88zM512 959.040c-139.2 0-156.48-0.64-211.2-3.2-54.4-2.24-91.52-10.88-124.16-23.68-33.6-13.12-62.4-30.4-90.56-58.88-28.48-28.48-46.080-56.96-59.2-90.88-12.8-32.32-21.44-69.76-23.68-124.16-2.56-54.72-3.2-72-3.2-211.2s0.64-156.48 3.2-211.2c2.56-54.4 11.2-91.84 23.68-124.16 13.12-33.6 30.72-62.080 59.2-90.56s56.96-46.080 90.56-59.2c32.64-12.8 69.76-21.44 124.16-23.68 54.72-2.56 72-3.2 211.2-3.2s156.48 0.64 211.2 3.2c54.4 2.56 91.84 11.2 124.16 23.68 33.6 13.12 62.080 30.72 90.56 59.2s46.080 56.96 59.2 90.56c12.8 32.64 21.44 69.76 23.68 124.16 2.56 54.72 3.2 72 3.2 211.2s-0.64 156.48-3.2 211.2c-2.56 54.4-11.2 91.84-23.68 124.16-13.12 33.6-30.72 62.080-59.2 90.56s-56.96 46.080-90.56 59.2c-32.64 12.8-69.76 21.44-124.16 23.68-54.72 2.56-72 3.2-211.2 3.2v0zM512 710.080c-145.28 0-263.040-117.76-263.040-263.040s117.76-263.040 263.040-263.040 263.040 117.76 263.040 263.040c0 145.28-117.76 263.040-263.040 263.040zM512 276.48c-94.4 0-170.56 76.48-170.56 170.56 0 94.4 76.48 170.56 170.56 170.56 94.4 0 170.56-76.48 170.56-170.56s-76.16-170.56-170.56-170.56zM846.72 720.32c0-33.932-27.508-61.44-61.44-61.44s-61.44 27.508-61.44 61.44c0 33.932 27.508 61.44 61.44 61.44s61.44-27.508 61.44-61.44z" />
<glyph unicode="&#xe92e;" glyph-name="hatena" d="M617.92 417.92c-33.92 38.080-81.28 59.2-141.76 63.68 54.080 14.72 93.12 36.16 117.76 64.96s36.8 66.88 36.8 115.2c0.64 35.52-8 70.4-24.64 101.76-16.96 29.44-41.92 53.76-72 69.76-27.52 15.040-60.16 25.92-98.24 32.32-38.4 6.4-105.6 8.96-201.6 8.96h-234.24v-852.8h240.96c96.96 0 166.72 3.2 209.6 9.6 42.88 6.72 78.4 17.92 107.2 33.28 34.88 17.92 63.36 46.080 82.24 80.32 19.2 34.56 28.8 74.56 28.8 120.64 0 63.68-16.64 114.24-50.88 152.32zM216.32 685.76h49.92c57.92 0 96.64-6.4 116.48-19.52s29.76-35.52 29.76-67.52-10.88-52.48-32-65.28c-21.12-12.8-60.48-18.88-117.76-18.88h-46.4v171.2zM414.4 196.8c-23.040-13.76-62.080-20.8-116.8-20.8h-81.28v185.92h84.8c56.32 0 95.36-7.040 115.84-21.44 20.8-14.4 31.68-39.040 31.68-75.2s-11.2-55.040-34.56-69.12l0.32 0.64zM915.84 237.76c-59.84 0-108.16-48.32-108.16-108.16s48.32-108.16 108.16-108.16c59.84 0 108.16 48.32 108.16 108.16v0c0 59.52-48.32 108.16-108.16 108.16zM822.080 874.56h187.84v-568.64h-187.84v568.64z" />
<glyph unicode="&#xe92f;" glyph-name="evernote" d="M349.12 730.56c0-9.92-0.96-27.2-11.2-38.080-11.2-10.24-28.16-11.2-38.080-11.2h-108.48c-31.36 0-49.92 0-62.72-1.6-7.040-0.96-15.36-4.48-19.84-6.080-1.28-0.64-1.6 0-0.96 0.96l248 252.16c0.96 0.96 1.28 0.64 0.96-0.96-1.6-4.16-5.12-12.8-6.080-19.52-1.6-12.8-1.6-31.36-1.6-62.72v-112.96zM579.52-32c-29.12 18.56-43.84 43.52-49.92 58.56-5.76 14.72-8.96 30.4-8.96 47.040 0 70.4 57.6 128 128.96 128 21.12 0 38.080-16.96 38.080-38.080 0-14.080-8-26.56-19.84-33.28-3.84-2.24-10.24-4.48-14.4-5.12s-20.48-2.56-27.84-9.28c-8.96-6.72-15.040-17.6-15.040-29.76 0-12.8 5.12-24.64 13.44-32.96 15.36-15.36 35.52-23.68 57.6-23.68 57.6 0 104.32 46.72 104.32 104.32 0 51.84-34.88 97.6-80.64 118.080-6.72 3.52-17.92 6.080-28.16 8.64-12.8 2.56-24.64 4.16-25.6 4.16-35.52 4.16-124.8 32.32-130.56 111.040 0 0-26.24-118.72-79.040-151.040-5.12-2.56-11.84-5.12-19.52-6.72s-16-2.56-18.56-2.56c-85.76-5.12-176.64 22.080-239.36 86.4 0 0-42.56 34.88-64.64 132.48-5.12 23.68-15.36 66.24-21.12 105.92-1.92 14.4-2.88 25.6-3.52 35.84 0 41.28 25.6 69.44 57.28 73.6 0.96 0 3.84 0.32 5.12 0.32 19.2 0 167.68 0 167.68 0 29.76 0 46.72 7.68 57.6 17.92 14.4 13.44 17.92 32.96 17.92 56 0 0 0 154.24 0 173.76 0 1.28 0.32 3.84 0.32 5.12 3.84 31.68 32.32 57.28 73.6 57.28 0 0 12.8 0 20.48 0 8.64 0 18.88-0.64 28.16-2.24 7.040-0.96 12.8-2.24 22.72-4.8 51.84-12.8 62.72-65.28 62.72-65.28s97.6-16.96 146.88-25.6c46.72-8.64 161.92-16 184-132.48 51.84-276.48 20.48-544.64 17.92-544.64-36.8-261.44-254.080-248.96-254.080-248.96-45.76 0.64-80.64 16.32-104 32zM775.040 524.48c-28.16 2.88-51.84-8.32-60.48-29.76-1.92-4.48-3.2-9.28-2.24-11.84s2.56-3.2 4.16-4.16c10.24-4.8 27.52-7.36 51.84-10.24 24.64-2.88 41.6-4.48 52.8-2.24 1.92 0.32 3.84 0.64 5.12 2.88 1.6 2.24 1.28 7.36 0.64 12.16-3.2 22.72-23.68 39.36-51.84 43.2z" />
</font>
</defs>
</svg>
